# MagicaVoxel @ Ephtracy

# group
g Base

# material
mtllib Base.mtl
usemtl palette

# normals
vn -1 0 0
vn 1 0 0
vn 0 0 1
vn 0 0 -1
vn 0 -1 0
vn 0 1 0

# texcoords
vt 0.529297 0.5
vt 0.541016 0.5
vt 0.658203 0.5
vt 0.685547 0.5
vt 0.841797 0.5
vt 0.958984 0.5
vt 0.962891 0.5
vt 0.970703 0.5
vt 0.994141 0.5

# verts
v -54 0 20
v -54 0 -20
v -54 1 20
v -54 1 -20
v -52 1 20
v -52 1 -20
v -52 2 20
v -52 2 -20
v -50 2 20
v -50 2 -20
v -50 3 20
v -50 3 -20
v -48 3 -2
v -48 3 -20
v -48 4 -2
v -48 4 -20
v -46 4 -3
v -46 4 -20
v -46 5 -3
v -46 5 -20
v 1 5 -4
v 1 5 -20
v 1 12 -4
v 1 12 -20
v 1 13 -4
v 1 13 -20
v 2 13 -4
v 2 13 -20
v 2 14 -4
v 2 14 -20
v 30 14 -6
v 30 14 -7
v 30 26 -6
v 30 26 -7
v 31 14 -6
v 31 14 -7
v 31 19 -6
v 31 19 -7
v 38 13 -4
v 38 13 -20
v 38 14 -4
v 38 14 -20
v 39 5 -4
v 39 5 -20
v 39 12 -4
v 39 12 -20
v 39 13 -4
v 39 13 -20
v 40 19 -6
v 40 19 -7
v 40 20 -6
v 40 20 -7
v 40 21 -6
v 40 21 -7
v 40 22 -6
v 40 22 -7
v 40 23 -6
v 40 23 -7
v 40 24 -6
v 40 24 -7
v 40 25 -6
v 40 25 -7
v 40 26 -6
v 40 26 -7
v 46 4 -3
v 46 4 -20
v 46 5 -3
v 46 5 -20
v 48 3 -2
v 48 3 -20
v 48 4 -2
v 48 4 -20
v 50 2 20
v 50 2 -20
v 50 3 20
v 50 3 -20
v 52 1 20
v 52 1 -20
v 52 2 20
v 52 2 -20
v 54 0 20
v 54 0 -20
v 54 1 20
v 54 1 -20
v -54 0 20
v -54 1 20
v -52 0 20
v -52 1 20
v -52 2 20
v -50 1 20
v -50 2 20
v -50 3 20
v -48 2 20
v -48 3 20
v 48 2 20
v 48 3 20
v 50 1 20
v 50 2 20
v 50 3 20
v 52 0 20
v 52 1 20
v 52 2 20
v 54 0 20
v 54 1 20
v -48 3 -2
v -48 4 -2
v -46 3 -2
v -46 4 -2
v 1 3 -2
v 1 4 -2
v 39 3 -2
v 39 4 -2
v 46 3 -2
v 46 4 -2
v 48 3 -2
v 48 4 -2
v -46 4 -3
v -46 5 -3
v -44 4 -3
v -44 5 -3
v 1 4 -3
v 1 5 -3
v 19 4 -3
v 19 5 -3
v 21 4 -3
v 21 5 -3
v 39 4 -3
v 39 5 -3
v 44 4 -3
v 44 5 -3
v 46 4 -3
v 46 5 -3
v 1 5 -4
v 1 12 -4
v 1 13 -4
v 2 13 -4
v 2 14 -4
v 3 6 -4
v 3 7 -4
v 3 9 -4
v 3 10 -4
v 9 6 -4
v 9 7 -4
v 9 9 -4
v 9 10 -4
v 11 6 -4
v 11 7 -4
v 11 9 -4
v 11 10 -4
v 17 6 -4
v 17 7 -4
v 17 9 -4
v 17 10 -4
v 18 5 -4
v 18 10 -4
v 19 5 -4
v 21 5 -4
v 22 5 -4
v 22 10 -4
v 24 6 -4
v 24 7 -4
v 24 9 -4
v 24 10 -4
v 30 6 -4
v 30 7 -4
v 30 9 -4
v 30 10 -4
v 32 6 -4
v 32 7 -4
v 32 9 -4
v 32 10 -4
v 38 6 -4
v 38 7 -4
v 38 9 -4
v 38 10 -4
v 38 13 -4
v 38 14 -4
v 39 5 -4
v 39 12 -4
v 39 13 -4
v 30 14 -6
v 30 26 -6
v 31 14 -6
v 31 19 -6
v 31 20 -6
v 31 21 -6
v 31 22 -6
v 31 23 -6
v 31 26 -6
v 34 23 -6
v 34 24 -6
v 34 25 -6
v 34 26 -6
v 40 19 -6
v 40 20 -6
v 40 21 -6
v 40 22 -6
v 40 23 -6
v 40 24 -6
v 40 25 -6
v 40 26 -6
v 30 14 -7
v 30 26 -7
v 31 14 -7
v 31 19 -7
v 31 20 -7
v 31 21 -7
v 31 22 -7
v 31 23 -7
v 31 26 -7
v 34 23 -7
v 34 24 -7
v 34 25 -7
v 34 26 -7
v 40 19 -7
v 40 20 -7
v 40 21 -7
v 40 22 -7
v 40 23 -7
v 40 24 -7
v 40 25 -7
v 40 26 -7
v -54 0 -20
v -54 1 -20
v -52 0 -20
v -52 1 -20
v -52 2 -20
v -50 1 -20
v -50 2 -20
v -50 3 -20
v -48 2 -20
v -48 3 -20
v -48 4 -20
v -46 3 -20
v -46 4 -20
v -46 5 -20
v -44 4 -20
v -44 5 -20
v 1 3 -20
v 1 5 -20
v 1 12 -20
v 1 13 -20
v 2 13 -20
v 2 14 -20
v 38 13 -20
v 38 14 -20
v 39 3 -20
v 39 5 -20
v 39 12 -20
v 39 13 -20
v 44 4 -20
v 44 5 -20
v 46 3 -20
v 46 4 -20
v 46 5 -20
v 48 2 -20
v 48 3 -20
v 48 4 -20
v 50 1 -20
v 50 2 -20
v 50 3 -20
v 52 0 -20
v 52 1 -20
v 52 2 -20
v 54 0 -20
v 54 1 -20
v -54 0 20
v -52 0 20
v 52 0 20
v 54 0 20
v -54 0 -20
v -52 0 -20
v 52 0 -20
v 54 0 -20
v 31 19 -6
v 40 19 -6
v 31 19 -7
v 40 19 -7
v -54 1 20
v -52 1 20
v 52 1 20
v 54 1 20
v -54 1 -20
v -52 1 -20
v 52 1 -20
v 54 1 -20
v -52 2 20
v -50 2 20
v 50 2 20
v 52 2 20
v -52 2 -20
v -50 2 -20
v 50 2 -20
v 52 2 -20
v -50 3 20
v -48 3 20
v 48 3 20
v 50 3 20
v -48 3 -2
v -46 3 -2
v 1 3 -2
v 39 3 -2
v 46 3 -2
v 48 3 -2
v -50 3 -20
v -48 3 -20
v 48 3 -20
v 50 3 -20
v -48 4 -2
v -46 4 -2
v 1 4 -2
v 39 4 -2
v 46 4 -2
v 48 4 -2
v -46 4 -3
v -44 4 -3
v 1 4 -3
v 19 4 -3
v 21 4 -3
v 39 4 -3
v 44 4 -3
v 46 4 -3
v -48 4 -20
v -46 4 -20
v 46 4 -20
v 48 4 -20
v -46 5 -3
v -44 5 -3
v 1 5 -3
v 19 5 -3
v 21 5 -3
v 39 5 -3
v 44 5 -3
v 46 5 -3
v 1 5 -4
v 18 5 -4
v 19 5 -4
v 21 5 -4
v 22 5 -4
v 39 5 -4
v -46 5 -20
v -44 5 -20
v 1 5 -20
v 39 5 -20
v 44 5 -20
v 46 5 -20
v 1 13 -4
v 2 13 -4
v 38 13 -4
v 39 13 -4
v 1 13 -20
v 2 13 -20
v 38 13 -20
v 39 13 -20
v 2 14 -4
v 38 14 -4
v 30 14 -6
v 31 14 -6
v 30 14 -7
v 31 14 -7
v 2 14 -20
v 38 14 -20
v 30 26 -6
v 31 26 -6
v 34 26 -6
v 40 26 -6
v 30 26 -7
v 31 26 -7
v 34 26 -7
v 40 26 -7

# faces
f 3/8/1 2/8/1 1/8/1
f 4/8/1 2/8/1 3/8/1
f 7/8/1 6/8/1 5/8/1
f 8/8/1 6/8/1 7/8/1
f 11/8/1 10/8/1 9/8/1
f 12/8/1 10/8/1 11/8/1
f 15/8/1 14/8/1 13/8/1
f 16/8/1 14/8/1 15/8/1
f 19/8/1 18/8/1 17/8/1
f 20/8/1 18/8/1 19/8/1
f 23/1/1 22/1/1 21/1/1
f 24/1/1 22/1/1 23/1/1
f 25/8/1 24/8/1 23/8/1
f 26/8/1 24/8/1 25/8/1
f 29/8/1 28/8/1 27/8/1
f 30/8/1 28/8/1 29/8/1
f 33/7/1 32/7/1 31/7/1
f 34/7/1 32/7/1 33/7/1
f 35/7/2 36/7/2 37/7/2
f 37/7/2 36/7/2 38/7/2
f 39/8/2 40/8/2 41/8/2
f 41/8/2 40/8/2 42/8/2
f 43/1/2 44/1/2 45/1/2
f 45/1/2 44/1/2 46/1/2
f 45/8/2 46/8/2 47/8/2
f 47/8/2 46/8/2 48/8/2
f 49/6/2 50/6/2 51/6/2
f 51/6/2 50/6/2 52/6/2
f 51/5/2 52/5/2 53/5/2
f 53/5/2 52/5/2 54/5/2
f 53/6/2 54/6/2 55/6/2
f 55/6/2 54/6/2 56/6/2
f 55/5/2 56/5/2 57/5/2
f 57/5/2 56/5/2 58/5/2
f 57/6/2 58/6/2 59/6/2
f 59/6/2 58/6/2 60/6/2
f 59/5/2 60/5/2 61/5/2
f 61/5/2 60/5/2 62/5/2
f 61/6/2 62/6/2 63/6/2
f 63/6/2 62/6/2 64/6/2
f 65/8/2 66/8/2 67/8/2
f 67/8/2 66/8/2 68/8/2
f 69/8/2 70/8/2 71/8/2
f 71/8/2 70/8/2 72/8/2
f 73/8/2 74/8/2 75/8/2
f 75/8/2 74/8/2 76/8/2
f 77/8/2 78/8/2 79/8/2
f 79/8/2 78/8/2 80/8/2
f 81/8/2 82/8/2 83/8/2
f 83/8/2 82/8/2 84/8/2
f 87/8/3 86/8/3 85/8/3
f 88/8/3 86/8/3 87/8/3
f 90/2/3 88/2/3 87/2/3
f 90/8/3 89/8/3 88/8/3
f 91/8/3 89/8/3 90/8/3
f 93/2/3 91/2/3 90/2/3
f 93/8/3 92/8/3 91/8/3
f 94/8/3 92/8/3 93/8/3
f 95/2/3 93/2/3 90/2/3
f 95/2/3 94/2/3 93/2/3
f 96/2/3 94/2/3 95/2/3
f 97/2/3 90/2/3 87/2/3
f 97/2/3 95/2/3 90/2/3
f 98/8/3 96/8/3 95/8/3
f 98/2/3 95/2/3 97/2/3
f 99/8/3 96/8/3 98/8/3
f 100/2/3 97/2/3 87/2/3
f 101/8/3 98/8/3 97/8/3
f 101/2/3 97/2/3 100/2/3
f 102/8/3 98/8/3 101/8/3
f 103/8/3 101/8/3 100/8/3
f 104/8/3 101/8/3 103/8/3
f 107/8/3 106/8/3 105/8/3
f 108/8/3 106/8/3 107/8/3
f 109/2/3 108/2/3 107/2/3
f 110/2/3 108/2/3 109/2/3
f 111/8/3 110/8/3 109/8/3
f 112/8/3 110/8/3 111/8/3
f 113/2/3 112/2/3 111/2/3
f 114/2/3 112/2/3 113/2/3
f 115/8/3 114/8/3 113/8/3
f 116/8/3 114/8/3 115/8/3
f 119/8/3 118/8/3 117/8/3
f 120/8/3 118/8/3 119/8/3
f 121/2/3 120/2/3 119/2/3
f 122/2/3 120/2/3 121/2/3
f 123/8/3 122/8/3 121/8/3
f 124/8/3 122/8/3 123/8/3
f 125/4/3 124/4/3 123/4/3
f 126/4/3 124/4/3 125/4/3
f 127/8/3 126/8/3 125/8/3
f 128/8/3 126/8/3 127/8/3
f 129/2/3 128/2/3 127/2/3
f 130/2/3 128/2/3 129/2/3
f 131/8/3 130/8/3 129/8/3
f 132/8/3 130/8/3 131/8/3
f 136/8/3 135/8/3 134/8/3
f 138/1/3 134/1/3 133/1/3
f 139/1/3 134/1/3 138/1/3
f 140/1/3 134/1/3 139/1/3
f 141/1/3 134/1/3 140/1/3
f 142/1/3 138/1/3 133/1/3
f 142/8/3 139/8/3 138/8/3
f 143/9/3 140/9/3 139/9/3
f 143/8/3 139/8/3 142/8/3
f 144/8/3 141/8/3 140/8/3
f 144/9/3 140/9/3 143/9/3
f 145/1/3 134/1/3 141/1/3
f 145/8/3 141/8/3 144/8/3
f 146/1/3 144/1/3 143/1/3
f 146/1/3 143/1/3 142/1/3
f 146/1/3 145/1/3 144/1/3
f 146/1/3 142/1/3 133/1/3
f 147/1/3 145/1/3 146/1/3
f 148/1/3 145/1/3 147/1/3
f 149/1/3 134/1/3 145/1/3
f 149/1/3 145/1/3 148/1/3
f 150/1/3 146/1/3 133/1/3
f 150/8/3 147/8/3 146/8/3
f 151/9/3 148/9/3 147/9/3
f 151/8/3 147/8/3 150/8/3
f 152/8/3 149/8/3 148/8/3
f 152/9/3 148/9/3 151/9/3
f 153/1/3 134/1/3 149/1/3
f 153/8/3 149/8/3 152/8/3
f 154/1/3 150/1/3 133/1/3
f 154/1/3 152/1/3 151/1/3
f 154/1/3 153/1/3 152/1/3
f 154/1/3 151/1/3 150/1/3
f 155/1/3 134/1/3 153/1/3
f 155/1/3 153/1/3 154/1/3
f 156/9/3 155/9/3 154/9/3
f 157/9/3 155/9/3 156/9/3
f 158/9/3 155/9/3 157/9/3
f 159/1/3 134/1/3 155/1/3
f 159/9/3 155/9/3 158/9/3
f 160/1/3 159/1/3 158/1/3
f 161/1/3 159/1/3 160/1/3
f 162/1/3 159/1/3 161/1/3
f 163/1/3 134/1/3 159/1/3
f 163/1/3 159/1/3 162/1/3
f 164/1/3 160/1/3 158/1/3
f 164/8/3 161/8/3 160/8/3
f 165/9/3 162/9/3 161/9/3
f 165/8/3 161/8/3 164/8/3
f 166/8/3 163/8/3 162/8/3
f 166/9/3 162/9/3 165/9/3
f 167/1/3 134/1/3 163/1/3
f 167/8/3 163/8/3 166/8/3
f 168/1/3 164/1/3 158/1/3
f 168/1/3 166/1/3 165/1/3
f 168/1/3 167/1/3 166/1/3
f 168/1/3 165/1/3 164/1/3
f 169/1/3 167/1/3 168/1/3
f 170/1/3 167/1/3 169/1/3
f 171/1/3 134/1/3 167/1/3
f 171/1/3 167/1/3 170/1/3
f 172/1/3 168/1/3 158/1/3
f 172/8/3 169/8/3 168/8/3
f 173/9/3 170/9/3 169/9/3
f 173/8/3 169/8/3 172/8/3
f 174/8/3 171/8/3 170/8/3
f 174/9/3 170/9/3 173/9/3
f 175/1/3 134/1/3 171/1/3
f 175/8/3 171/8/3 174/8/3
f 176/8/3 137/8/3 136/8/3
f 176/8/3 136/8/3 134/8/3
f 177/8/3 137/8/3 176/8/3
f 178/1/3 175/1/3 174/1/3
f 178/1/3 172/1/3 158/1/3
f 178/1/3 174/1/3 173/1/3
f 178/1/3 173/1/3 172/1/3
f 179/1/3 134/1/3 175/1/3
f 179/1/3 175/1/3 178/1/3
f 179/8/3 176/8/3 134/8/3
f 180/8/3 176/8/3 179/8/3
f 183/7/3 182/7/3 181/7/3
f 184/7/3 182/7/3 183/7/3
f 185/7/3 182/7/3 184/7/3
f 186/7/3 182/7/3 185/7/3
f 187/7/3 182/7/3 186/7/3
f 188/7/3 182/7/3 187/7/3
f 189/7/3 182/7/3 188/7/3
f 190/5/3 188/5/3 187/5/3
f 190/3/3 189/3/3 188/3/3
f 191/3/3 189/3/3 190/3/3
f 192/3/3 189/3/3 191/3/3
f 193/3/3 189/3/3 192/3/3
f 194/6/3 185/6/3 184/6/3
f 195/5/3 186/5/3 185/5/3
f 195/6/3 185/6/3 194/6/3
f 196/6/3 187/6/3 186/6/3
f 196/5/3 186/5/3 195/5/3
f 197/5/3 190/5/3 187/5/3
f 197/6/3 187/6/3 196/6/3
f 198/6/3 191/6/3 190/6/3
f 198/5/3 190/5/3 197/5/3
f 199/5/3 192/5/3 191/5/3
f 199/6/3 191/6/3 198/6/3
f 200/6/3 193/6/3 192/6/3
f 200/5/3 192/5/3 199/5/3
f 201/6/3 193/6/3 200/6/3
f 202/7/4 203/7/4 204/7/4
f 204/7/4 203/7/4 205/7/4
f 205/7/4 203/7/4 206/7/4
f 206/7/4 203/7/4 207/7/4
f 207/7/4 203/7/4 208/7/4
f 208/7/4 203/7/4 209/7/4
f 209/7/4 203/7/4 210/7/4
f 208/5/4 209/5/4 211/5/4
f 209/3/4 210/3/4 211/3/4
f 211/3/4 210/3/4 212/3/4
f 212/3/4 210/3/4 213/3/4
f 213/3/4 210/3/4 214/3/4
f 205/6/4 206/6/4 215/6/4
f 206/5/4 207/5/4 216/5/4
f 215/6/4 206/6/4 216/6/4
f 207/6/4 208/6/4 217/6/4
f 216/5/4 207/5/4 217/5/4
f 208/5/4 211/5/4 218/5/4
f 217/6/4 208/6/4 218/6/4
f 211/6/4 212/6/4 219/6/4
f 218/5/4 211/5/4 219/5/4
f 212/5/4 213/5/4 220/5/4
f 219/6/4 212/6/4 220/6/4
f 213/6/4 214/6/4 221/6/4
f 220/5/4 213/5/4 221/5/4
f 221/6/4 214/6/4 222/6/4
f 223/8/4 224/8/4 225/8/4
f 225/8/4 224/8/4 226/8/4
f 225/2/4 226/2/4 228/2/4
f 226/8/4 227/8/4 228/8/4
f 228/8/4 227/8/4 229/8/4
f 228/2/4 229/2/4 231/2/4
f 229/8/4 230/8/4 231/8/4
f 231/8/4 230/8/4 232/8/4
f 231/2/4 232/2/4 234/2/4
f 232/8/4 233/8/4 234/8/4
f 234/8/4 233/8/4 235/8/4
f 234/2/4 235/2/4 237/2/4
f 235/8/4 236/8/4 237/8/4
f 237/8/4 236/8/4 238/8/4
f 231/2/4 234/2/4 239/2/4
f 234/2/4 237/2/4 239/2/4
f 237/2/4 238/2/4 239/2/4
f 239/2/4 238/2/4 240/2/4
f 241/8/4 242/8/4 243/8/4
f 241/8/4 243/8/4 245/8/4
f 243/8/4 244/8/4 245/8/4
f 245/8/4 244/8/4 246/8/4
f 239/8/4 240/8/4 247/8/4
f 231/2/4 239/2/4 247/2/4
f 240/1/4 241/1/4 248/1/4
f 247/8/4 240/8/4 248/8/4
f 241/8/4 245/8/4 249/8/4
f 248/1/4 241/1/4 249/1/4
f 249/8/4 245/8/4 250/8/4
f 247/2/4 248/2/4 251/2/4
f 251/2/4 248/2/4 252/2/4
f 231/2/4 247/2/4 253/2/4
f 247/2/4 251/2/4 253/2/4
f 251/8/4 252/8/4 254/8/4
f 253/2/4 251/2/4 254/2/4
f 254/8/4 252/8/4 255/8/4
f 228/2/4 231/2/4 256/2/4
f 231/2/4 253/2/4 256/2/4
f 253/8/4 254/8/4 257/8/4
f 256/2/4 253/2/4 257/2/4
f 257/8/4 254/8/4 258/8/4
f 225/2/4 228/2/4 259/2/4
f 228/2/4 256/2/4 259/2/4
f 256/8/4 257/8/4 260/8/4
f 259/2/4 256/2/4 260/2/4
f 260/8/4 257/8/4 261/8/4
f 225/2/4 259/2/4 262/2/4
f 259/8/4 260/8/4 263/8/4
f 262/2/4 259/2/4 263/2/4
f 263/8/4 260/8/4 264/8/4
f 262/8/4 263/8/4 265/8/4
f 265/8/4 263/8/4 266/8/4
f 271/8/5 268/8/5 267/8/5
f 272/2/5 269/2/5 268/2/5
f 272/8/5 268/8/5 271/8/5
f 273/8/5 270/8/5 269/8/5
f 273/2/5 269/2/5 272/2/5
f 274/8/5 270/8/5 273/8/5
f 277/6/5 276/6/5 275/6/5
f 278/6/5 276/6/5 277/6/5
f 279/8/6 280/8/6 283/8/6
f 283/8/6 280/8/6 284/8/6
f 281/8/6 282/8/6 285/8/6
f 285/8/6 282/8/6 286/8/6
f 287/8/6 288/8/6 291/8/6
f 291/8/6 288/8/6 292/8/6
f 289/8/6 290/8/6 293/8/6
f 293/8/6 290/8/6 294/8/6
f 295/8/6 296/8/6 299/8/6
f 296/2/6 297/2/6 299/2/6
f 299/2/6 297/2/6 300/2/6
f 300/2/6 297/2/6 301/2/6
f 301/2/6 297/2/6 302/2/6
f 302/2/6 297/2/6 303/2/6
f 297/8/6 298/8/6 304/8/6
f 303/2/6 297/2/6 304/2/6
f 295/8/6 299/8/6 305/8/6
f 305/8/6 299/8/6 306/8/6
f 304/8/6 298/8/6 307/8/6
f 307/8/6 298/8/6 308/8/6
f 309/8/6 310/8/6 315/8/6
f 310/2/6 311/2/6 315/2/6
f 315/2/6 311/2/6 316/2/6
f 311/8/6 312/8/6 317/8/6
f 316/2/6 311/2/6 317/2/6
f 317/8/6 312/8/6 318/8/6
f 318/8/6 312/8/6 319/8/6
f 312/2/6 313/2/6 320/2/6
f 319/8/6 312/8/6 320/8/6
f 320/2/6 313/2/6 321/2/6
f 313/8/6 314/8/6 322/8/6
f 321/2/6 313/2/6 322/2/6
f 309/8/6 315/8/6 323/8/6
f 323/8/6 315/8/6 324/8/6
f 322/8/6 314/8/6 325/8/6
f 325/8/6 314/8/6 326/8/6
f 328/2/6 329/2/6 335/2/6
f 329/8/6 330/8/6 335/8/6
f 335/8/6 330/8/6 336/8/6
f 330/4/6 331/4/6 337/4/6
f 336/8/6 330/8/6 337/8/6
f 331/8/6 332/8/6 338/8/6
f 337/4/6 331/4/6 338/4/6
f 338/8/6 332/8/6 339/8/6
f 332/2/6 333/2/6 340/2/6
f 339/8/6 332/8/6 340/8/6
f 327/8/6 328/8/6 341/8/6
f 328/2/6 335/2/6 342/2/6
f 341/8/6 328/8/6 342/8/6
f 342/2/6 335/2/6 343/2/6
f 340/2/6 333/2/6 344/2/6
f 333/8/6 334/8/6 345/8/6
f 344/2/6 333/2/6 345/2/6
f 345/8/6 334/8/6 346/8/6
f 347/8/6 348/8/6 351/8/6
f 351/8/6 348/8/6 352/8/6
f 349/8/6 350/8/6 353/8/6
f 353/8/6 350/8/6 354/8/6
f 355/8/6 356/8/6 357/8/6
f 357/8/6 356/8/6 358/8/6
f 355/8/6 357/8/6 359/8/6
f 358/8/6 356/8/6 360/8/6
f 355/8/6 359/8/6 361/8/6
f 359/8/6 360/8/6 361/8/6
f 360/8/6 356/8/6 362/8/6
f 361/8/6 360/8/6 362/8/6
f 363/7/6 364/7/6 367/7/6
f 364/3/6 365/3/6 368/3/6
f 367/7/6 364/7/6 368/7/6
f 365/6/6 366/6/6 369/6/6
f 368/3/6 365/3/6 369/3/6
f 369/6/6 366/6/6 370/6/6
