# MagicaVoxel @ Ephtracy

# group
g House

# material
mtllib House.mtl
usemtl palette

# normals
vn -1 0 0
vn 1 0 0
vn 0 0 1
vn 0 0 -1
vn 0 -1 0
vn 0 1 0

# texcoords
vt 0.369141 0.5
vt 0.587891 0.5
vt 0.853516 0.5
vt 0.958984 0.5
vt 0.970703 0.5
vt 0.974609 0.5
vt 0.978516 0.5
vt 0.982422 0.5
vt 0.990234 0.5

# verts
v -11 0 8
v -11 0 5
v -11 0 -8
v -11 2 8
v -11 2 6
v -11 2 5
v -11 8 6
v -11 8 -8
v -11 9 6
v -11 9 -8
v -11 15 4
v -11 15 3
v -11 16 4
v -11 16 3
v -10 15 3
v -10 15 2
v -10 16 3
v -10 16 2
v -9 9 6
v -9 9 -8
v -9 10 6
v -9 10 4
v -9 10 2
v -9 10 -8
v -9 14 4
v -9 14 3
v -9 14 2
v -9 15 3
v -9 15 2
v -8 2 8
v -8 2 6
v -8 3 8
v -8 3 6
v -7 3 8
v -7 3 6
v -7 4 8
v -7 4 6
v -7 10 6
v -7 10 4
v -7 10 2
v -7 10 -8
v -7 11 6
v -7 11 4
v -7 11 2
v -7 11 -8
v -5 4 8
v -5 4 6
v -5 5 8
v -5 5 6
v -5 11 6
v -5 11 -8
v -5 12 6
v -5 12 -8
v -3 2 8
v -3 2 6
v -3 4 8
v -3 4 6
v -3 12 6
v -3 12 -8
v -3 13 6
v -3 13 -8
v -1 13 6
v -1 13 -8
v -1 14 6
v -1 14 -8
v 2 2 8
v 2 2 6
v 2 4 8
v 2 4 6
v -9 15 4
v -9 15 3
v -9 16 4
v -9 16 3
v -8 14 3
v -8 14 2
v -8 16 3
v -8 16 2
v -7 11 4
v -7 11 2
v -7 14 4
v -7 14 2
v -6 2 8
v -6 2 6
v -6 3 8
v -6 3 6
v -4 3 8
v -4 3 6
v -4 4 8
v -4 4 6
v -2 2 8
v -2 2 6
v -2 4 8
v -2 4 6
v 3 2 8
v 3 2 6
v 3 5 8
v 3 5 6
v 3 13 6
v 3 13 -8
v 3 14 6
v 3 14 -8
v 5 12 6
v 5 12 -8
v 5 13 6
v 5 13 -8
v 7 11 6
v 7 11 -8
v 7 12 6
v 7 12 -8
v 9 10 6
v 9 10 -8
v 9 11 6
v 9 11 -8
v 11 0 8
v 11 0 5
v 11 0 -8
v 11 2 8
v 11 2 6
v 11 2 5
v 11 9 6
v 11 9 -8
v 11 10 6
v 11 10 -8
v -11 0 8
v -11 2 8
v -8 2 8
v -8 3 8
v -7 3 8
v -7 4 8
v -6 2 8
v -6 3 8
v -5 4 8
v -5 5 8
v -4 3 8
v -4 4 8
v -3 2 8
v -3 4 8
v -2 2 8
v -2 4 8
v 2 2 8
v 2 4 8
v 3 2 8
v 3 5 8
v 11 0 8
v 11 2 8
v -11 2 6
v -11 8 6
v -11 9 6
v -9 8 6
v -9 9 6
v -9 10 6
v -8 2 6
v -8 3 6
v -7 3 6
v -7 4 6
v -7 9 6
v -7 10 6
v -7 11 6
v -6 2 6
v -6 3 6
v -5 4 6
v -5 5 6
v -5 8 6
v -5 10 6
v -5 11 6
v -5 12 6
v -4 3 6
v -4 4 6
v -3 2 6
v -3 4 6
v -3 11 6
v -3 12 6
v -3 13 6
v -2 2 6
v -2 4 6
v -2 8 6
v -2 10 6
v -1 12 6
v -1 13 6
v -1 14 6
v 0 5 6
v 0 7 6
v 0 8 6
v 0 11 6
v 1 7 6
v 1 8 6
v 2 2 6
v 2 4 6
v 3 2 6
v 3 5 6
v 3 11 6
v 3 12 6
v 3 13 6
v 3 14 6
v 4 8 6
v 4 10 6
v 5 11 6
v 5 12 6
v 5 13 6
v 7 8 6
v 7 10 6
v 7 11 6
v 7 12 6
v 9 9 6
v 9 10 6
v 9 11 6
v 11 2 6
v 11 9 6
v 11 10 6
v -11 15 4
v -11 16 4
v -9 10 4
v -9 14 4
v -9 15 4
v -9 16 4
v -7 10 4
v -7 11 4
v -7 14 4
v -9 14 3
v -9 15 3
v -9 16 3
v -8 14 3
v -8 16 3
v -11 15 3
v -11 16 3
v -10 15 3
v -10 16 3
v -10 15 2
v -10 16 2
v -9 10 2
v -9 14 2
v -9 15 2
v -8 14 2
v -8 16 2
v -7 10 2
v -7 11 2
v -7 14 2
v -11 0 -8
v -11 8 -8
v -11 9 -8
v -9 8 -8
v -9 9 -8
v -9 10 -8
v -7 9 -8
v -7 10 -8
v -7 11 -8
v -5 11 -8
v -5 12 -8
v -3 12 -8
v -3 13 -8
v -1 13 -8
v -1 14 -8
v 3 13 -8
v 3 14 -8
v 5 12 -8
v 5 13 -8
v 7 11 -8
v 7 12 -8
v 9 9 -8
v 9 10 -8
v 9 11 -8
v 11 0 -8
v 11 9 -8
v 11 10 -8
v -11 0 8
v 11 0 8
v -11 0 5
v 11 0 5
v -11 0 -8
v 11 0 -8
v -6 3 8
v -4 3 8
v -6 3 6
v -4 3 6
v -4 4 8
v -3 4 8
v -2 4 8
v 2 4 8
v -4 4 6
v -3 4 6
v -2 4 6
v 2 4 6
v -11 15 4
v -9 15 4
v -11 15 3
v -10 15 3
v -9 15 3
v -10 15 2
v -9 15 2
v -11 2 8
v -8 2 8
v -6 2 8
v -3 2 8
v -2 2 8
v 2 2 8
v 3 2 8
v 11 2 8
v -11 2 6
v -8 2 6
v -6 2 6
v -3 2 6
v -2 2 6
v 2 2 6
v 3 2 6
v 11 2 6
v -8 3 8
v -7 3 8
v -8 3 6
v -7 3 6
v -7 4 8
v -5 4 8
v -7 4 6
v -5 4 6
v -5 5 8
v 3 5 8
v -5 5 6
v 0 5 6
v 3 5 6
v -11 9 6
v -9 9 6
v -11 9 -8
v -9 9 -8
v -9 10 6
v -7 10 6
v 9 10 6
v 11 10 6
v -9 10 4
v -7 10 4
v -9 10 2
v -7 10 2
v -9 10 -8
v -7 10 -8
v 9 10 -8
v 11 10 -8
v -7 11 6
v -5 11 6
v 7 11 6
v 9 11 6
v -7 11 4
v -7 11 2
v -7 11 -8
v -5 11 -8
v 7 11 -8
v 9 11 -8
v -5 12 6
v -3 12 6
v 5 12 6
v 7 12 6
v -5 12 -8
v -3 12 -8
v 5 12 -8
v 7 12 -8
v -3 13 6
v -1 13 6
v 3 13 6
v 5 13 6
v -3 13 -8
v -1 13 -8
v 3 13 -8
v 5 13 -8
v -1 14 6
v 3 14 6
v -9 14 4
v -7 14 4
v -9 14 3
v -8 14 3
v -8 14 2
v -7 14 2
v -1 14 -8
v 3 14 -8
v -11 16 4
v -9 16 4
v -11 16 3
v -10 16 3
v -9 16 3
v -8 16 3
v -10 16 2
v -8 16 2

# faces
f 4/4/1 2/4/1 1/4/1
f 5/4/1 2/4/1 4/4/1
f 6/6/1 3/6/1 2/6/1
f 6/4/1 2/4/1 5/4/1
f 7/6/1 6/6/1 5/6/1
f 8/6/1 3/6/1 6/6/1
f 8/6/1 6/6/1 7/6/1
f 9/8/1 8/8/1 7/8/1
f 10/8/1 8/8/1 9/8/1
f 13/7/1 12/7/1 11/7/1
f 14/7/1 12/7/1 13/7/1
f 17/9/1 16/9/1 15/9/1
f 18/9/1 16/9/1 17/9/1
f 21/8/1 20/8/1 19/8/1
f 22/8/1 20/8/1 21/8/1
f 23/8/1 20/8/1 22/8/1
f 24/8/1 20/8/1 23/8/1
f 25/3/1 23/3/1 22/3/1
f 26/3/1 23/3/1 25/3/1
f 27/3/1 23/3/1 26/3/1
f 28/9/1 27/9/1 26/9/1
f 29/9/1 27/9/1 28/9/1
f 32/4/1 31/4/1 30/4/1
f 33/4/1 31/4/1 32/4/1
f 36/4/1 35/4/1 34/4/1
f 37/4/1 35/4/1 36/4/1
f 42/8/1 39/8/1 38/8/1
f 43/8/1 39/8/1 42/8/1
f 44/8/1 41/8/1 40/8/1
f 45/8/1 41/8/1 44/8/1
f 48/4/1 47/4/1 46/4/1
f 49/4/1 47/4/1 48/4/1
f 52/8/1 51/8/1 50/8/1
f 53/8/1 51/8/1 52/8/1
f 56/4/1 55/4/1 54/4/1
f 57/4/1 55/4/1 56/4/1
f 60/8/1 59/8/1 58/8/1
f 61/8/1 59/8/1 60/8/1
f 64/8/1 63/8/1 62/8/1
f 65/8/1 63/8/1 64/8/1
f 68/4/1 67/4/1 66/4/1
f 69/4/1 67/4/1 68/4/1
f 70/7/2 71/7/2 72/7/2
f 72/7/2 71/7/2 73/7/2
f 74/9/2 75/9/2 76/9/2
f 76/9/2 75/9/2 77/9/2
f 78/3/2 79/3/2 80/3/2
f 80/3/2 79/3/2 81/3/2
f 82/4/2 83/4/2 84/4/2
f 84/4/2 83/4/2 85/4/2
f 86/4/2 87/4/2 88/4/2
f 88/4/2 87/4/2 89/4/2
f 90/4/2 91/4/2 92/4/2
f 92/4/2 91/4/2 93/4/2
f 94/4/2 95/4/2 96/4/2
f 96/4/2 95/4/2 97/4/2
f 98/8/2 99/8/2 100/8/2
f 100/8/2 99/8/2 101/8/2
f 102/8/2 103/8/2 104/8/2
f 104/8/2 103/8/2 105/8/2
f 106/8/2 107/8/2 108/8/2
f 108/8/2 107/8/2 109/8/2
f 110/8/2 111/8/2 112/8/2
f 112/8/2 111/8/2 113/8/2
f 114/4/2 115/4/2 117/4/2
f 117/4/2 115/4/2 118/4/2
f 115/6/2 116/6/2 119/6/2
f 118/4/2 115/4/2 119/4/2
f 118/6/2 119/6/2 120/6/2
f 119/6/2 116/6/2 121/6/2
f 120/6/2 119/6/2 121/6/2
f 120/8/2 121/8/2 122/8/2
f 122/8/2 121/8/2 123/8/2
f 126/4/3 125/4/3 124/4/3
f 128/4/3 127/4/3 126/4/3
f 130/4/3 126/4/3 124/4/3
f 130/4/3 129/4/3 128/4/3
f 130/4/3 128/4/3 126/4/3
f 131/4/3 129/4/3 130/4/3
f 132/4/3 129/4/3 131/4/3
f 134/4/3 132/4/3 131/4/3
f 134/4/3 133/4/3 132/4/3
f 135/4/3 133/4/3 134/4/3
f 136/4/3 130/4/3 124/4/3
f 137/4/3 133/4/3 135/4/3
f 138/4/3 136/4/3 124/4/3
f 138/4/3 137/4/3 136/4/3
f 139/4/3 133/4/3 137/4/3
f 139/4/3 137/4/3 138/4/3
f 140/4/3 138/4/3 124/4/3
f 141/4/3 133/4/3 139/4/3
f 142/4/3 140/4/3 124/4/3
f 142/4/3 141/4/3 140/4/3
f 143/4/3 133/4/3 141/4/3
f 143/4/3 141/4/3 142/4/3
f 144/4/3 142/4/3 124/4/3
f 145/4/3 142/4/3 144/4/3
f 149/6/3 147/6/3 146/6/3
f 149/8/3 148/8/3 147/8/3
f 150/8/3 148/8/3 149/8/3
f 152/6/3 149/6/3 146/6/3
f 152/6/3 150/6/3 149/6/3
f 153/6/3 150/6/3 152/6/3
f 154/6/3 150/6/3 153/6/3
f 155/6/3 150/6/3 154/6/3
f 156/8/3 151/8/3 150/8/3
f 156/6/3 150/6/3 155/6/3
f 157/8/3 151/8/3 156/8/3
f 161/6/3 156/6/3 155/6/3
f 161/6/3 157/6/3 156/6/3
f 162/6/3 157/6/3 161/6/3
f 163/6/3 157/6/3 162/6/3
f 164/8/3 158/8/3 157/8/3
f 164/6/3 157/6/3 163/6/3
f 165/8/3 158/8/3 164/8/3
f 167/6/3 160/6/3 159/6/3
f 169/6/3 167/6/3 159/6/3
f 169/6/3 168/6/3 167/6/3
f 170/6/3 168/6/3 169/6/3
f 171/8/3 166/8/3 165/8/3
f 171/6/3 165/6/3 164/6/3
f 172/8/3 166/8/3 171/8/3
f 176/6/3 163/6/3 162/6/3
f 176/2/3 164/2/3 163/2/3
f 177/6/3 172/6/3 171/6/3
f 177/2/3 164/2/3 176/2/3
f 177/6/3 171/6/3 164/6/3
f 178/8/3 173/8/3 172/8/3
f 178/6/3 172/6/3 177/6/3
f 178/6/3 177/6/3 176/6/3
f 179/8/3 173/8/3 178/8/3
f 181/6/3 176/6/3 162/6/3
f 181/6/3 178/6/3 176/6/3
f 181/6/3 179/6/3 178/6/3
f 182/6/3 179/6/3 181/6/3
f 183/6/3 179/6/3 182/6/3
f 184/6/3 179/6/3 183/6/3
f 185/1/3 182/1/3 181/1/3
f 185/5/3 183/5/3 182/5/3
f 186/1/3 184/1/3 183/1/3
f 186/5/3 183/5/3 185/5/3
f 187/6/3 175/6/3 174/6/3
f 188/6/3 175/6/3 187/6/3
f 190/1/3 185/1/3 181/1/3
f 190/1/3 186/1/3 185/1/3
f 191/1/3 184/1/3 186/1/3
f 191/6/3 179/6/3 184/6/3
f 191/1/3 186/1/3 190/1/3
f 192/6/3 179/6/3 191/6/3
f 193/8/3 180/8/3 179/8/3
f 193/6/3 179/6/3 192/6/3
f 194/8/3 180/8/3 193/8/3
f 195/6/3 190/6/3 189/6/3
f 195/6/3 192/6/3 191/6/3
f 195/6/3 191/6/3 190/6/3
f 196/6/3 192/6/3 195/6/3
f 197/6/3 192/6/3 196/6/3
f 198/8/3 193/8/3 192/8/3
f 198/6/3 192/6/3 197/6/3
f 199/8/3 193/8/3 198/8/3
f 200/6/3 195/6/3 189/6/3
f 200/2/3 196/2/3 195/2/3
f 201/6/3 197/6/3 196/6/3
f 201/2/3 196/2/3 200/2/3
f 202/8/3 198/8/3 197/8/3
f 202/6/3 197/6/3 201/6/3
f 203/8/3 198/8/3 202/8/3
f 204/6/3 201/6/3 200/6/3
f 205/8/3 202/8/3 201/8/3
f 205/6/3 201/6/3 204/6/3
f 206/8/3 202/8/3 205/8/3
f 207/6/3 200/6/3 189/6/3
f 207/6/3 204/6/3 200/6/3
f 208/8/3 205/8/3 204/8/3
f 208/6/3 204/6/3 207/6/3
f 209/8/3 205/8/3 208/8/3
f 214/7/3 211/7/3 210/7/3
f 215/7/3 211/7/3 214/7/3
f 216/3/3 213/3/3 212/3/3
f 217/3/3 213/3/3 216/3/3
f 218/3/3 213/3/3 217/3/3
f 222/9/3 220/9/3 219/9/3
f 222/9/3 221/9/3 220/9/3
f 223/9/3 221/9/3 222/9/3
f 224/7/4 225/7/4 226/7/4
f 226/7/4 225/7/4 227/7/4
f 228/9/4 229/9/4 232/9/4
f 230/3/4 231/3/4 233/3/4
f 231/9/4 232/9/4 233/9/4
f 232/9/4 229/9/4 234/9/4
f 233/9/4 232/9/4 234/9/4
f 230/3/4 233/3/4 235/3/4
f 235/3/4 233/3/4 236/3/4
f 236/3/4 233/3/4 237/3/4
f 238/6/4 239/6/4 241/6/4
f 239/8/4 240/8/4 241/8/4
f 241/8/4 240/8/4 242/8/4
f 241/6/4 242/6/4 244/6/4
f 242/8/4 243/8/4 244/8/4
f 244/8/4 243/8/4 245/8/4
f 245/8/4 246/8/4 247/8/4
f 247/8/4 248/8/4 249/8/4
f 249/8/4 250/8/4 251/8/4
f 249/8/4 251/8/4 253/8/4
f 251/8/4 252/8/4 253/8/4
f 253/8/4 252/8/4 254/8/4
f 247/8/4 249/8/4 255/8/4
f 249/8/4 253/8/4 255/8/4
f 255/8/4 253/8/4 256/8/4
f 245/8/4 247/8/4 257/8/4
f 247/8/4 255/8/4 257/8/4
f 257/8/4 255/8/4 258/8/4
f 241/6/4 244/6/4 259/6/4
f 244/6/4 245/6/4 259/6/4
f 245/8/4 257/8/4 260/8/4
f 259/6/4 245/6/4 260/6/4
f 260/8/4 257/8/4 261/8/4
f 238/6/4 241/6/4 262/6/4
f 241/6/4 259/6/4 262/6/4
f 259/8/4 260/8/4 263/8/4
f 262/6/4 259/6/4 263/6/4
f 263/8/4 260/8/4 264/8/4
f 267/4/5 266/4/5 265/4/5
f 268/4/5 266/4/5 267/4/5
f 269/6/5 268/6/5 267/6/5
f 270/6/5 268/6/5 269/6/5
f 273/4/5 272/4/5 271/4/5
f 274/4/5 272/4/5 273/4/5
f 279/4/5 276/4/5 275/4/5
f 280/4/5 276/4/5 279/4/5
f 281/4/5 278/4/5 277/4/5
f 282/4/5 278/4/5 281/4/5
f 285/7/5 284/7/5 283/7/5
f 286/7/5 284/7/5 285/7/5
f 287/7/5 284/7/5 286/7/5
f 288/9/5 287/9/5 286/9/5
f 289/9/5 287/9/5 288/9/5
f 290/4/6 291/4/6 298/4/6
f 298/4/6 291/4/6 299/4/6
f 292/4/6 293/4/6 300/4/6
f 300/4/6 293/4/6 301/4/6
f 294/4/6 295/4/6 302/4/6
f 302/4/6 295/4/6 303/4/6
f 296/4/6 297/4/6 304/4/6
f 304/4/6 297/4/6 305/4/6
f 306/4/6 307/4/6 308/4/6
f 308/4/6 307/4/6 309/4/6
f 310/4/6 311/4/6 312/4/6
f 312/4/6 311/4/6 313/4/6
f 314/4/6 315/4/6 316/4/6
f 316/4/6 315/4/6 317/4/6
f 317/4/6 315/4/6 318/4/6
f 319/8/6 320/8/6 321/8/6
f 321/8/6 320/8/6 322/8/6
f 323/8/6 324/8/6 327/8/6
f 327/8/6 324/8/6 328/8/6
f 329/8/6 330/8/6 331/8/6
f 331/8/6 330/8/6 332/8/6
f 325/8/6 326/8/6 333/8/6
f 333/8/6 326/8/6 334/8/6
f 335/8/6 336/8/6 339/8/6
f 339/8/6 336/8/6 340/8/6
f 340/8/6 336/8/6 341/8/6
f 341/8/6 336/8/6 342/8/6
f 337/8/6 338/8/6 343/8/6
f 343/8/6 338/8/6 344/8/6
f 345/8/6 346/8/6 349/8/6
f 349/8/6 346/8/6 350/8/6
f 347/8/6 348/8/6 351/8/6
f 351/8/6 348/8/6 352/8/6
f 353/8/6 354/8/6 357/8/6
f 357/8/6 354/8/6 358/8/6
f 355/8/6 356/8/6 359/8/6
f 359/8/6 356/8/6 360/8/6
f 363/3/6 364/3/6 365/3/6
f 365/3/6 364/3/6 366/3/6
f 366/3/6 364/3/6 367/3/6
f 367/3/6 364/3/6 368/3/6
f 361/8/6 362/8/6 369/8/6
f 369/8/6 362/8/6 370/8/6
f 371/7/6 372/7/6 373/7/6
f 373/7/6 372/7/6 374/7/6
f 374/7/6 372/7/6 375/7/6
f 375/9/6 376/9/6 377/9/6
f 374/9/6 375/9/6 377/9/6
f 377/9/6 376/9/6 378/9/6
