# MagicaVoxel @ Ephtracy

# group
g HouseDistroyed

# material
mtllib HouseDistroyed.mtl
usemtl palette

# normals
vn -1 0 0
vn 1 0 0
vn 0 0 1
vn 0 0 -1
vn 0 -1 0
vn 0 1 0

# texcoords
vt 0.134766 0.5
vt 0.845703 0.5
vt 0.849609 0.5
vt 0.853516 0.5
vt 0.861328 0.5
vt 0.958984 0.5
vt 0.966797 0.5
vt 0.974609 0.5
vt 0.982422 0.5
vt 0.990234 0.5
vt 0.994141 0.5

# verts
v -11 0 8
v -11 0 5
v -11 0 -8
v -11 2 8
v -11 2 6
v -11 2 5
v -11 4 6
v -11 4 5
v -11 8 6
v -11 8 -8
v -11 9 6
v -11 9 -8
v -9 9 6
v -9 9 -8
v -9 10 6
v -9 10 4
v -9 10 2
v -9 10 -8
v -9 14 4
v -9 14 2
v -8 2 8
v -8 2 6
v -8 3 8
v -8 3 6
v -7 3 8
v -7 3 6
v -7 4 8
v -7 4 6
v -7 10 6
v -7 10 4
v -7 10 2
v -7 10 -8
v -7 11 6
v -7 11 4
v -7 11 2
v -7 11 -8
v -5 4 8
v -5 4 6
v -5 5 8
v -5 5 6
v -5 11 -1
v -5 11 -8
v -5 12 -1
v -5 12 -8
v -3 2 8
v -3 2 6
v -3 4 8
v -3 4 6
v -3 12 -1
v -3 12 -8
v -3 13 -1
v -3 13 -8
v -1 13 -0
v -1 13 -1
v -1 13 -8
v -1 14 -0
v -1 14 -8
v 2 2 8
v 2 2 6
v 2 4 8
v 2 4 6
v 3 8 1
v 3 8 -0
v 3 9 1
v 3 9 -0
v 3 9 -1
v 3 10 1
v 3 10 -0
v 3 10 -1
v 3 11 -0
v 3 11 -1
v 3 11 -2
v 3 13 -1
v 3 13 -2
v 4 10 1
v 4 10 -0
v 4 11 1
v 4 11 -0
v 5 5 6
v 5 5 5
v 5 5 3
v 5 5 2
v 5 5 1
v 5 8 6
v 5 8 5
v 5 8 2
v 5 8 1
v 5 9 6
v 5 9 5
v 5 10 6
v 5 10 5
v 5 10 2
v 5 10 1
v 5 11 6
v 5 11 5
v 5 11 1
v 5 11 -1
v 5 12 6
v 5 12 -1
v -7 11 4
v -7 11 2
v -7 14 4
v -7 14 2
v -6 2 8
v -6 2 6
v -6 3 8
v -6 3 6
v -6 5 6
v -6 5 5
v -6 5 2
v -6 5 1
v -6 6 2
v -6 6 1
v -6 7 6
v -6 7 5
v -6 7 2
v -6 7 1
v -6 8 6
v -6 8 5
v -6 8 1
v -6 9 6
v -6 9 5
v -6 9 2
v -6 9 1
v -6 10 6
v -6 10 5
v -6 10 2
v -6 10 1
v -6 11 6
v -6 11 1
v -4 3 8
v -4 3 6
v -4 4 8
v -4 4 6
v -4 10 1
v -4 10 -0
v -4 11 1
v -4 11 -0
v -2 2 8
v -2 2 6
v -2 4 8
v -2 4 6
v -1 8 1
v -1 8 -0
v -1 9 1
v -1 9 -0
v -1 10 1
v -1 10 -0
v 0 13 -0
v 0 13 -1
v 0 14 -0
v 0 14 -1
v 1 9 -0
v 1 9 -1
v 1 10 -0
v 1 10 -1
v 1 11 -0
v 1 11 -1
v 1 13 -1
v 1 13 -2
v 1 14 -1
v 1 14 -2
v 2 11 -1
v 2 11 -2
v 2 13 -1
v 2 13 -2
v 3 2 8
v 3 2 6
v 3 4 6
v 3 5 8
v 3 5 6
v 3 13 -2
v 3 13 -8
v 3 14 -2
v 3 14 -8
v 5 12 -1
v 5 12 -8
v 5 13 -1
v 5 13 -8
v 7 11 6
v 7 11 -8
v 7 12 6
v 7 12 -8
v 9 10 6
v 9 10 -8
v 9 11 6
v 9 11 -8
v 11 0 8
v 11 0 5
v 11 0 -8
v 11 2 8
v 11 2 6
v 11 2 5
v 11 4 6
v 11 4 5
v 11 9 6
v 11 9 -8
v 11 10 6
v 11 10 -8
v -11 0 8
v -11 2 8
v -8 2 8
v -8 3 8
v -7 3 8
v -7 4 8
v -6 2 8
v -6 3 8
v -5 4 8
v -5 5 8
v -4 3 8
v -4 4 8
v -3 2 8
v -3 4 8
v -2 2 8
v -2 4 8
v 2 2 8
v 2 4 8
v 3 2 8
v 3 5 8
v 11 0 8
v 11 2 8
v -11 2 6
v -11 4 6
v -11 8 6
v -11 9 6
v -9 8 6
v -9 9 6
v -9 10 6
v -8 2 6
v -8 3 6
v -7 3 6
v -7 4 6
v -7 5 6
v -7 7 6
v -7 8 6
v -7 9 6
v -7 10 6
v -7 11 6
v -6 2 6
v -6 3 6
v -6 5 6
v -6 7 6
v -6 8 6
v -6 9 6
v -6 10 6
v -6 11 6
v -5 4 6
v -5 5 6
v -4 3 6
v -4 4 6
v -3 2 6
v -3 4 6
v -2 2 6
v -2 4 6
v 2 2 6
v 2 4 6
v 3 2 6
v 3 4 6
v 3 5 6
v 5 5 6
v 5 8 6
v 5 9 6
v 5 10 6
v 5 11 6
v 5 12 6
v 6 5 6
v 6 8 6
v 6 9 6
v 6 10 6
v 6 11 6
v 7 8 6
v 7 10 6
v 7 11 6
v 7 12 6
v 9 9 6
v 9 10 6
v 9 11 6
v 11 2 6
v 11 4 6
v 11 9 6
v 11 10 6
v -9 10 4
v -9 14 4
v -7 10 4
v -7 11 4
v -7 14 4
v -6 5 1
v -6 6 1
v -6 7 1
v -6 8 1
v -6 9 1
v -6 10 1
v -6 11 1
v -5 5 1
v -5 6 1
v -5 7 1
v -5 8 1
v -5 9 1
v -4 5 1
v -4 6 1
v -4 7 1
v -4 8 1
v -4 9 1
v -4 10 1
v -4 11 1
v -3 5 1
v -3 6 1
v -3 7 1
v -3 8 1
v -3 9 1
v -2 5 1
v -2 6 1
v -2 7 1
v -2 8 1
v -2 9 1
v -2 10 1
v -1 7 1
v -1 8 1
v -1 9 1
v -1 10 1
v 0 5 1
v 0 6 1
v 0 7 1
v 0 8 1
v 1 5 1
v 1 6 1
v 1 8 1
v 2 5 1
v 2 6 1
v 2 8 1
v 3 5 1
v 3 6 1
v 3 7 1
v 3 8 1
v 3 9 1
v 3 10 1
v 4 5 1
v 4 7 1
v 4 8 1
v 4 9 1
v 4 10 1
v 4 11 1
v 5 5 1
v 5 8 1
v 5 10 1
v 5 11 1
v -4 10 -0
v -4 11 -0
v -2 10 -0
v -1 8 -0
v -1 9 -0
v -1 10 -0
v -1 13 -0
v -1 14 -0
v 0 8 -0
v 0 9 -0
v 0 13 -0
v 0 14 -0
v 1 8 -0
v 1 9 -0
v 1 10 -0
v 1 11 -0
v 2 8 -0
v 2 9 -0
v 3 8 -0
v 3 9 -0
v 3 10 -0
v 3 11 -0
v 4 10 -0
v 4 11 -0
v -5 11 -1
v -5 12 -1
v -3 12 -1
v -3 13 -1
v -1 13 -1
v 0 13 -1
v 0 14 -1
v 1 9 -1
v 1 10 -1
v 1 11 -1
v 1 13 -1
v 1 14 -1
v 2 9 -1
v 2 11 -1
v 2 13 -1
v 3 9 -1
v 3 10 -1
v 3 11 -1
v 3 13 -1
v 5 11 -1
v 5 12 -1
v 5 13 -1
v 1 13 -2
v 1 14 -2
v 2 11 -2
v 2 13 -2
v 3 11 -2
v 3 13 -2
v 3 14 -2
v -9 10 2
v -9 14 2
v -7 10 2
v -7 11 2
v -7 14 2
v -11 0 -8
v -11 8 -8
v -11 9 -8
v -9 8 -8
v -9 9 -8
v -9 10 -8
v -7 9 -8
v -7 10 -8
v -7 11 -8
v -5 11 -8
v -5 12 -8
v -3 12 -8
v -3 13 -8
v -1 13 -8
v -1 14 -8
v 3 13 -8
v 3 14 -8
v 5 12 -8
v 5 13 -8
v 7 11 -8
v 7 12 -8
v 9 9 -8
v 9 10 -8
v 9 11 -8
v 11 0 -8
v 11 9 -8
v 11 10 -8
v -11 0 8
v 11 0 8
v -11 0 5
v 11 0 5
v -11 0 -8
v 11 0 -8
v -6 3 8
v -4 3 8
v -6 3 6
v -4 3 6
v -4 4 8
v -3 4 8
v -2 4 8
v 2 4 8
v -4 4 6
v -3 4 6
v -2 4 6
v 2 4 6
v -1 13 -0
v 0 13 -0
v -1 13 -1
v 0 13 -1
v -11 2 8
v -8 2 8
v -6 2 8
v -3 2 8
v -2 2 8
v 2 2 8
v 3 2 8
v 11 2 8
v -11 2 6
v -8 2 6
v -6 2 6
v -3 2 6
v -2 2 6
v 2 2 6
v 3 2 6
v 11 2 6
v -8 3 8
v -7 3 8
v -8 3 6
v -7 3 6
v -7 4 8
v -5 4 8
v -7 4 6
v -5 4 6
v -5 5 8
v 3 5 8
v -6 5 6
v -5 5 6
v 3 5 6
v 5 5 6
v -6 5 5
v -5 5 5
v 3 5 5
v 5 5 5
v 3 5 3
v 5 5 3
v -6 5 2
v -5 5 2
v 5 5 2
v -6 5 1
v -5 5 1
v -4 5 1
v -3 5 1
v -2 5 1
v 0 5 1
v 1 5 1
v 2 5 1
v 3 5 1
v 4 5 1
v 5 5 1
v -1 8 1
v 0 8 1
v 1 8 1
v 2 8 1
v 3 8 1
v -1 8 -0
v 0 8 -0
v 1 8 -0
v 2 8 -0
v 3 8 -0
v -11 9 6
v -9 9 6
v 1 9 -0
v 2 9 -0
v 3 9 -0
v 1 9 -1
v 2 9 -1
v 3 9 -1
v -11 9 -8
v -9 9 -8
v -9 10 6
v -7 10 6
v 9 10 6
v 11 10 6
v -9 10 4
v -7 10 4
v -9 10 2
v -7 10 2
v -4 10 1
v -2 10 1
v -1 10 1
v 3 10 1
v 4 10 1
v -4 10 -0
v -2 10 -0
v -1 10 -0
v 3 10 -0
v 4 10 -0
v -9 10 -8
v -7 10 -8
v 9 10 -8
v 11 10 -8
v -7 11 6
v -6 11 6
v 7 11 6
v 9 11 6
v -7 11 4
v -7 11 2
v -6 11 1
v -4 11 1
v 4 11 1
v 5 11 1
v -4 11 -0
v 1 11 -0
v 3 11 -0
v 4 11 -0
v -5 11 -1
v 1 11 -1
v 2 11 -1
v 3 11 -1
v 5 11 -1
v 2 11 -2
v 3 11 -2
v -7 11 -8
v -5 11 -8
v 7 11 -8
v 9 11 -8
v 5 12 6
v 7 12 6
v -5 12 -1
v -3 12 -1
v 5 12 -1
v -5 12 -8
v -3 12 -8
v 5 12 -8
v 7 12 -8
v -3 13 -1
v -1 13 -1
v 1 13 -1
v 2 13 -1
v 3 13 -1
v 5 13 -1
v 1 13 -2
v 2 13 -2
v 3 13 -2
v -3 13 -8
v -1 13 -8
v 3 13 -8
v 5 13 -8
v -9 14 4
v -7 14 4
v -9 14 2
v -7 14 2
v -1 14 -0
v 0 14 -0
v 0 14 -1
v 1 14 -1
v 1 14 -2
v 3 14 -2
v -1 14 -8
v 3 14 -8

# faces
f 4/6/1 2/6/1 1/6/1
f 5/6/1 2/6/1 4/6/1
f 6/8/1 3/8/1 2/8/1
f 6/6/1 2/6/1 5/6/1
f 7/7/1 6/7/1 5/7/1
f 8/8/1 3/8/1 6/8/1
f 8/7/1 6/7/1 7/7/1
f 9/8/1 8/8/1 7/8/1
f 10/8/1 3/8/1 8/8/1
f 10/8/1 8/8/1 9/8/1
f 11/9/1 10/9/1 9/9/1
f 12/9/1 10/9/1 11/9/1
f 15/9/1 14/9/1 13/9/1
f 16/9/1 14/9/1 15/9/1
f 17/9/1 14/9/1 16/9/1
f 18/9/1 14/9/1 17/9/1
f 19/4/1 17/4/1 16/4/1
f 20/4/1 17/4/1 19/4/1
f 23/6/1 22/6/1 21/6/1
f 24/6/1 22/6/1 23/6/1
f 27/6/1 26/6/1 25/6/1
f 28/6/1 26/6/1 27/6/1
f 33/9/1 30/9/1 29/9/1
f 34/9/1 30/9/1 33/9/1
f 35/9/1 32/9/1 31/9/1
f 36/9/1 32/9/1 35/9/1
f 39/6/1 38/6/1 37/6/1
f 40/6/1 38/6/1 39/6/1
f 43/9/1 42/9/1 41/9/1
f 44/9/1 42/9/1 43/9/1
f 47/6/1 46/6/1 45/6/1
f 48/6/1 46/6/1 47/6/1
f 51/9/1 50/9/1 49/9/1
f 52/9/1 50/9/1 51/9/1
f 56/9/1 54/9/1 53/9/1
f 56/9/1 55/9/1 54/9/1
f 57/9/1 55/9/1 56/9/1
f 60/6/1 59/6/1 58/6/1
f 61/6/1 59/6/1 60/6/1
f 64/1/1 63/1/1 62/1/1
f 65/1/1 63/1/1 64/1/1
f 67/11/1 65/11/1 64/11/1
f 68/8/1 66/8/1 65/8/1
f 68/11/1 65/11/1 67/11/1
f 69/8/1 66/8/1 68/8/1
f 70/9/1 69/9/1 68/9/1
f 71/9/1 69/9/1 70/9/1
f 73/9/1 72/9/1 71/9/1
f 74/9/1 72/9/1 73/9/1
f 77/9/1 76/9/1 75/9/1
f 78/9/1 76/9/1 77/9/1
f 84/5/1 80/5/1 79/5/1
f 84/5/1 81/5/1 80/5/1
f 84/5/1 82/5/1 81/5/1
f 85/5/1 82/5/1 84/5/1
f 86/2/1 83/2/1 82/2/1
f 86/5/1 82/5/1 85/5/1
f 87/2/1 83/2/1 86/2/1
f 88/4/1 85/4/1 84/4/1
f 89/5/1 86/5/1 85/5/1
f 89/4/1 85/4/1 88/4/1
f 90/5/1 89/5/1 88/5/1
f 91/5/1 86/5/1 89/5/1
f 91/5/1 89/5/1 90/5/1
f 92/8/1 87/8/1 86/8/1
f 92/5/1 86/5/1 91/5/1
f 93/8/1 87/8/1 92/8/1
f 94/4/1 91/4/1 90/4/1
f 95/9/1 92/9/1 91/9/1
f 95/4/1 91/4/1 94/4/1
f 95/9/1 93/9/1 92/9/1
f 96/9/1 93/9/1 95/9/1
f 98/9/1 96/9/1 95/9/1
f 98/9/1 97/9/1 96/9/1
f 98/9/1 95/9/1 94/9/1
f 99/9/1 97/9/1 98/9/1
f 100/4/2 101/4/2 102/4/2
f 102/4/2 101/4/2 103/4/2
f 104/6/2 105/6/2 106/6/2
f 106/6/2 105/6/2 107/6/2
f 108/5/2 109/5/2 112/5/2
f 110/3/2 111/3/2 112/3/2
f 109/5/2 110/5/2 112/5/2
f 112/3/2 111/3/2 113/3/2
f 108/5/2 112/5/2 114/5/2
f 114/5/2 112/5/2 115/5/2
f 112/2/2 113/2/2 116/2/2
f 115/5/2 112/5/2 116/5/2
f 116/2/2 113/2/2 117/2/2
f 114/4/2 115/4/2 118/4/2
f 115/5/2 116/5/2 119/5/2
f 118/4/2 115/4/2 119/4/2
f 116/3/2 117/3/2 120/3/2
f 118/5/2 119/5/2 121/5/2
f 119/5/2 116/5/2 122/5/2
f 121/5/2 119/5/2 122/5/2
f 116/3/2 120/3/2 123/3/2
f 122/5/2 116/5/2 123/5/2
f 123/3/2 120/3/2 124/3/2
f 121/4/2 122/4/2 125/4/2
f 122/5/2 123/5/2 126/5/2
f 125/4/2 122/4/2 126/4/2
f 123/8/2 124/8/2 127/8/2
f 126/5/2 123/5/2 127/5/2
f 127/8/2 124/8/2 128/8/2
f 125/9/2 126/9/2 129/9/2
f 126/9/2 127/9/2 129/9/2
f 127/9/2 128/9/2 129/9/2
f 129/9/2 128/9/2 130/9/2
f 131/6/2 132/6/2 133/6/2
f 133/6/2 132/6/2 134/6/2
f 135/9/2 136/9/2 137/9/2
f 137/9/2 136/9/2 138/9/2
f 139/6/2 140/6/2 141/6/2
f 141/6/2 140/6/2 142/6/2
f 143/1/2 144/1/2 145/1/2
f 145/1/2 144/1/2 146/1/2
f 145/11/2 146/11/2 147/11/2
f 147/11/2 146/11/2 148/11/2
f 149/9/2 150/9/2 151/9/2
f 151/9/2 150/9/2 152/9/2
f 153/10/2 154/10/2 155/10/2
f 155/10/2 154/10/2 156/10/2
f 155/9/2 156/9/2 157/9/2
f 157/9/2 156/9/2 158/9/2
f 159/9/2 160/9/2 161/9/2
f 161/9/2 160/9/2 162/9/2
f 163/9/2 164/9/2 165/9/2
f 165/9/2 164/9/2 166/9/2
f 167/6/2 168/6/2 169/6/2
f 167/6/2 169/6/2 170/6/2
f 170/6/2 169/6/2 171/6/2
f 172/9/2 173/9/2 174/9/2
f 174/9/2 173/9/2 175/9/2
f 176/9/2 177/9/2 178/9/2
f 178/9/2 177/9/2 179/9/2
f 180/9/2 181/9/2 182/9/2
f 182/9/2 181/9/2 183/9/2
f 184/9/2 185/9/2 186/9/2
f 186/9/2 185/9/2 187/9/2
f 188/6/2 189/6/2 191/6/2
f 191/6/2 189/6/2 192/6/2
f 189/8/2 190/8/2 193/8/2
f 192/6/2 189/6/2 193/6/2
f 192/7/2 193/7/2 194/7/2
f 193/8/2 190/8/2 195/8/2
f 194/7/2 193/7/2 195/7/2
f 194/8/2 195/8/2 196/8/2
f 195/8/2 190/8/2 197/8/2
f 196/8/2 195/8/2 197/8/2
f 196/9/2 197/9/2 198/9/2
f 198/9/2 197/9/2 199/9/2
f 202/6/3 201/6/3 200/6/3
f 204/6/3 203/6/3 202/6/3
f 206/6/3 202/6/3 200/6/3
f 206/6/3 205/6/3 204/6/3
f 206/6/3 204/6/3 202/6/3
f 207/6/3 205/6/3 206/6/3
f 208/6/3 205/6/3 207/6/3
f 210/6/3 208/6/3 207/6/3
f 210/6/3 209/6/3 208/6/3
f 211/6/3 209/6/3 210/6/3
f 212/6/3 206/6/3 200/6/3
f 213/6/3 209/6/3 211/6/3
f 214/6/3 212/6/3 200/6/3
f 214/6/3 213/6/3 212/6/3
f 215/6/3 209/6/3 213/6/3
f 215/6/3 213/6/3 214/6/3
f 216/6/3 214/6/3 200/6/3
f 217/6/3 209/6/3 215/6/3
f 218/6/3 216/6/3 200/6/3
f 218/6/3 217/6/3 216/6/3
f 219/6/3 209/6/3 217/6/3
f 219/6/3 217/6/3 218/6/3
f 220/6/3 218/6/3 200/6/3
f 221/6/3 218/6/3 220/6/3
f 226/8/3 224/8/3 223/8/3
f 226/9/3 225/9/3 224/9/3
f 227/9/3 225/9/3 226/9/3
f 229/7/3 223/7/3 222/7/3
f 230/7/3 223/7/3 229/7/3
f 231/7/3 223/7/3 230/7/3
f 232/8/3 226/8/3 223/8/3
f 232/7/3 223/7/3 231/7/3
f 232/8/3 227/8/3 226/8/3
f 233/8/3 227/8/3 232/8/3
f 234/8/3 227/8/3 233/8/3
f 235/8/3 227/8/3 234/8/3
f 236/9/3 228/9/3 227/9/3
f 236/8/3 227/8/3 235/8/3
f 237/9/3 228/9/3 236/9/3
f 241/8/3 233/8/3 232/8/3
f 241/5/3 234/5/3 233/5/3
f 242/4/3 235/4/3 234/4/3
f 242/5/3 234/5/3 241/5/3
f 243/5/3 236/5/3 235/5/3
f 243/4/3 235/4/3 242/4/3
f 244/4/3 237/4/3 236/4/3
f 244/5/3 236/5/3 243/5/3
f 245/9/3 238/9/3 237/9/3
f 245/4/3 237/4/3 244/4/3
f 246/9/3 238/9/3 245/9/3
f 247/8/3 241/8/3 232/8/3
f 248/8/3 241/8/3 247/8/3
f 249/7/3 240/7/3 239/7/3
f 251/7/3 249/7/3 239/7/3
f 251/7/3 250/7/3 249/7/3
f 252/7/3 250/7/3 251/7/3
f 255/7/3 254/7/3 253/7/3
f 256/7/3 254/7/3 255/7/3
f 260/8/3 259/8/3 258/8/3
f 266/8/3 260/8/3 258/8/3
f 266/5/3 261/5/3 260/5/3
f 267/4/3 262/4/3 261/4/3
f 267/5/3 261/5/3 266/5/3
f 268/5/3 263/5/3 262/5/3
f 268/4/3 262/4/3 267/4/3
f 269/4/3 264/4/3 263/4/3
f 269/5/3 263/5/3 268/5/3
f 270/9/3 265/9/3 264/9/3
f 270/4/3 264/4/3 269/4/3
f 271/4/3 268/4/3 267/4/3
f 271/4/3 269/4/3 268/4/3
f 271/8/3 267/8/3 266/8/3
f 272/8/3 270/8/3 269/8/3
f 272/4/3 269/4/3 271/4/3
f 273/9/3 265/9/3 270/9/3
f 273/8/3 270/8/3 272/8/3
f 274/9/3 265/9/3 273/9/3
f 275/8/3 272/8/3 271/8/3
f 276/9/3 273/9/3 272/9/3
f 276/8/3 272/8/3 275/8/3
f 277/9/3 273/9/3 276/9/3
f 278/7/3 258/7/3 257/7/3
f 279/8/3 271/8/3 266/8/3
f 279/7/3 258/7/3 278/7/3
f 279/8/3 266/8/3 258/8/3
f 279/8/3 275/8/3 271/8/3
f 280/9/3 276/9/3 275/9/3
f 280/8/3 275/8/3 279/8/3
f 281/9/3 276/9/3 280/9/3
f 284/4/3 283/4/3 282/4/3
f 285/4/3 283/4/3 284/4/3
f 286/4/3 283/4/3 285/4/3
f 294/3/3 288/3/3 287/3/3
f 294/3/3 289/3/3 288/3/3
f 295/3/3 289/3/3 294/3/3
f 296/2/3 290/2/3 289/2/3
f 296/3/3 289/3/3 295/3/3
f 297/11/3 292/11/3 291/11/3
f 297/2/3 290/2/3 296/2/3
f 297/11/3 291/11/3 290/11/3
f 298/11/3 292/11/3 297/11/3
f 299/3/3 295/3/3 294/3/3
f 300/2/3 296/2/3 295/2/3
f 300/3/3 295/3/3 299/3/3
f 300/2/3 297/2/3 296/2/3
f 301/2/3 297/2/3 300/2/3
f 302/1/3 298/1/3 297/1/3
f 302/2/3 297/2/3 301/2/3
f 303/11/3 292/11/3 298/11/3
f 303/1/3 298/1/3 302/1/3
f 304/9/3 293/9/3 292/9/3
f 304/11/3 292/11/3 303/11/3
f 305/9/3 293/9/3 304/9/3
f 306/2/3 300/2/3 299/2/3
f 307/3/3 301/3/3 300/3/3
f 307/2/3 300/2/3 306/2/3
f 308/11/3 302/11/3 301/11/3
f 308/3/3 301/3/3 307/3/3
f 309/1/3 303/1/3 302/1/3
f 309/11/3 302/11/3 308/11/3
f 309/1/3 304/1/3 303/1/3
f 310/1/3 304/1/3 309/1/3
f 311/1/3 307/1/3 306/1/3
f 312/11/3 308/11/3 307/11/3
f 312/1/3 307/1/3 311/1/3
f 313/2/3 309/2/3 308/2/3
f 313/11/3 308/11/3 312/11/3
f 314/11/3 310/11/3 309/11/3
f 314/2/3 309/2/3 313/2/3
f 315/1/3 304/1/3 310/1/3
f 315/11/3 310/11/3 314/11/3
f 316/1/3 304/1/3 315/1/3
f 317/11/3 314/11/3 313/11/3
f 317/2/3 313/2/3 312/2/3
f 318/1/3 315/1/3 314/1/3
f 318/11/3 314/11/3 317/11/3
f 319/11/3 316/11/3 315/11/3
f 319/1/3 315/1/3 318/1/3
f 320/11/3 316/11/3 319/11/3
f 321/11/3 312/11/3 311/11/3
f 322/2/3 317/2/3 312/2/3
f 322/11/3 312/11/3 321/11/3
f 323/1/3 318/1/3 317/1/3
f 323/2/3 317/2/3 322/2/3
f 324/1/3 318/1/3 323/1/3
f 325/2/3 322/2/3 321/2/3
f 326/11/3 323/11/3 322/11/3
f 326/2/3 322/2/3 325/2/3
f 326/11/3 324/11/3 323/11/3
f 327/11/3 324/11/3 326/11/3
f 328/11/3 326/11/3 325/11/3
f 329/2/3 327/2/3 326/2/3
f 329/11/3 326/11/3 328/11/3
f 330/2/3 327/2/3 329/2/3
f 331/2/3 329/2/3 328/2/3
f 332/11/3 330/11/3 329/11/3
f 332/2/3 329/2/3 331/2/3
f 333/11/3 330/11/3 332/11/3
f 334/11/3 330/11/3 333/11/3
f 337/3/3 333/3/3 332/3/3
f 337/3/3 332/3/3 331/3/3
f 338/11/3 334/11/3 333/11/3
f 338/3/3 333/3/3 337/3/3
f 339/1/3 335/1/3 334/1/3
f 339/11/3 334/11/3 338/11/3
f 340/11/3 336/11/3 335/11/3
f 340/1/3 335/1/3 339/1/3
f 341/11/3 336/11/3 340/11/3
f 343/2/3 339/2/3 338/2/3
f 343/2/3 338/2/3 337/2/3
f 344/11/3 341/11/3 340/11/3
f 344/2/3 339/2/3 343/2/3
f 344/11/3 340/11/3 339/11/3
f 345/9/3 342/9/3 341/9/3
f 345/11/3 341/11/3 344/11/3
f 346/9/3 342/9/3 345/9/3
f 349/9/3 348/9/3 347/9/3
f 352/9/3 348/9/3 349/9/3
f 355/10/3 351/10/3 350/10/3
f 355/10/3 352/10/3 351/10/3
f 356/10/3 352/10/3 355/10/3
f 357/9/3 354/9/3 353/9/3
f 358/9/3 354/9/3 357/9/3
f 359/1/3 356/1/3 355/1/3
f 360/10/3 352/10/3 356/10/3
f 360/1/3 356/1/3 359/1/3
f 361/9/3 348/9/3 352/9/3
f 361/10/3 352/10/3 360/10/3
f 362/9/3 348/9/3 361/9/3
f 363/10/3 360/10/3 359/10/3
f 364/10/3 360/10/3 363/10/3
f 365/1/3 364/1/3 363/1/3
f 366/1/3 364/1/3 365/1/3
f 369/9/3 368/9/3 367/9/3
f 370/9/3 368/9/3 369/9/3
f 373/9/3 372/9/3 371/9/3
f 375/9/3 374/9/3 373/9/3
f 376/9/3 375/9/3 373/9/3
f 380/9/3 373/9/3 371/9/3
f 380/9/3 376/9/3 373/9/3
f 380/9/3 377/9/3 376/9/3
f 381/9/3 377/9/3 380/9/3
f 382/9/3 377/9/3 381/9/3
f 383/8/3 379/8/3 378/8/3
f 384/9/3 380/9/3 379/9/3
f 384/9/3 381/9/3 380/9/3
f 385/9/3 381/9/3 384/9/3
f 386/8/3 379/8/3 383/8/3
f 387/9/3 384/9/3 379/9/3
f 387/8/3 379/8/3 386/8/3
f 388/9/3 384/9/3 387/9/3
f 390/9/3 389/9/3 388/9/3
f 391/9/3 389/9/3 390/9/3
f 392/9/3 389/9/3 391/9/3
f 396/9/3 394/9/3 393/9/3
f 397/9/3 396/9/3 395/9/3
f 398/9/3 394/9/3 396/9/3
f 398/9/3 396/9/3 397/9/3
f 399/9/3 394/9/3 398/9/3
f 400/4/4 401/4/4 402/4/4
f 402/4/4 401/4/4 403/4/4
f 403/4/4 401/4/4 404/4/4
f 405/8/4 406/8/4 408/8/4
f 406/9/4 407/9/4 408/9/4
f 408/9/4 407/9/4 409/9/4
f 408/8/4 409/8/4 411/8/4
f 409/9/4 410/9/4 411/9/4
f 411/9/4 410/9/4 412/9/4
f 412/9/4 413/9/4 414/9/4
f 414/9/4 415/9/4 416/9/4
f 416/9/4 417/9/4 418/9/4
f 416/9/4 418/9/4 420/9/4
f 418/9/4 419/9/4 420/9/4
f 420/9/4 419/9/4 421/9/4
f 414/9/4 416/9/4 422/9/4
f 416/9/4 420/9/4 422/9/4
f 422/9/4 420/9/4 423/9/4
f 412/9/4 414/9/4 424/9/4
f 414/9/4 422/9/4 424/9/4
f 424/9/4 422/9/4 425/9/4
f 408/8/4 411/8/4 426/8/4
f 411/8/4 412/8/4 426/8/4
f 412/9/4 424/9/4 427/9/4
f 426/8/4 412/8/4 427/8/4
f 427/9/4 424/9/4 428/9/4
f 405/8/4 408/8/4 429/8/4
f 408/8/4 426/8/4 429/8/4
f 426/9/4 427/9/4 430/9/4
f 429/8/4 426/8/4 430/8/4
f 430/9/4 427/9/4 431/9/4
f 434/6/5 433/6/5 432/6/5
f 435/6/5 433/6/5 434/6/5
f 436/8/5 435/8/5 434/8/5
f 437/8/5 435/8/5 436/8/5
f 440/6/5 439/6/5 438/6/5
f 441/6/5 439/6/5 440/6/5
f 446/6/5 443/6/5 442/6/5
f 447/6/5 443/6/5 446/6/5
f 448/6/5 445/6/5 444/6/5
f 449/6/5 445/6/5 448/6/5
f 452/9/5 451/9/5 450/9/5
f 453/9/5 451/9/5 452/9/5
f 454/6/6 455/6/6 462/6/6
f 462/6/6 455/6/6 463/6/6
f 456/6/6 457/6/6 464/6/6
f 464/6/6 457/6/6 465/6/6
f 458/6/6 459/6/6 466/6/6
f 466/6/6 459/6/6 467/6/6
f 460/6/6 461/6/6 468/6/6
f 468/6/6 461/6/6 469/6/6
f 470/6/6 471/6/6 472/6/6
f 472/6/6 471/6/6 473/6/6
f 474/6/6 475/6/6 476/6/6
f 476/6/6 475/6/6 477/6/6
f 478/6/6 479/6/6 481/6/6
f 481/6/6 479/6/6 482/6/6
f 480/8/6 481/8/6 484/8/6
f 481/6/6 482/6/6 485/6/6
f 484/8/6 481/8/6 485/8/6
f 482/8/6 483/8/6 486/8/6
f 485/6/6 482/6/6 486/6/6
f 486/8/6 483/8/6 487/8/6
f 485/10/6 486/10/6 488/10/6
f 486/10/6 487/10/6 488/10/6
f 488/10/6 487/10/6 489/10/6
f 484/4/6 485/4/6 490/4/6
f 485/10/6 488/10/6 491/10/6
f 490/4/6 485/4/6 491/4/6
f 488/3/6 489/3/6 492/3/6
f 490/2/6 491/2/6 493/2/6
f 491/10/6 488/10/6 494/10/6
f 493/2/6 491/2/6 494/2/6
f 494/10/6 488/10/6 495/10/6
f 495/10/6 488/10/6 496/10/6
f 496/10/6 488/10/6 497/10/6
f 497/10/6 488/10/6 498/10/6
f 498/10/6 488/10/6 499/10/6
f 499/10/6 488/10/6 500/10/6
f 488/3/6 492/3/6 501/3/6
f 500/10/6 488/10/6 501/10/6
f 501/3/6 492/3/6 502/3/6
f 502/3/6 492/3/6 503/3/6
f 504/1/6 505/1/6 509/1/6
f 505/11/6 506/11/6 510/11/6
f 509/1/6 505/1/6 510/1/6
f 506/2/6 507/2/6 511/2/6
f 510/11/6 506/11/6 511/11/6
f 507/11/6 508/11/6 512/11/6
f 511/2/6 507/2/6 512/2/6
f 512/11/6 508/11/6 513/11/6
f 516/10/6 517/10/6 519/10/6
f 517/1/6 518/1/6 520/1/6
f 519/10/6 517/10/6 520/10/6
f 520/1/6 518/1/6 521/1/6
f 514/9/6 515/9/6 522/9/6
f 522/9/6 515/9/6 523/9/6
f 524/9/6 525/9/6 528/9/6
f 528/9/6 525/9/6 529/9/6
f 532/1/6 533/1/6 537/1/6
f 533/11/6 534/11/6 538/11/6
f 537/1/6 533/1/6 538/1/6
f 538/11/6 534/11/6 539/11/6
f 535/11/6 536/11/6 540/11/6
f 540/11/6 536/11/6 541/11/6
f 530/9/6 531/9/6 542/9/6
f 542/9/6 531/9/6 543/9/6
f 526/9/6 527/9/6 544/9/6
f 544/9/6 527/9/6 545/9/6
f 546/9/6 547/9/6 550/9/6
f 550/9/6 547/9/6 551/9/6
f 551/9/6 547/9/6 552/9/6
f 552/9/6 553/9/6 556/9/6
f 554/9/6 555/9/6 559/9/6
f 556/9/6 557/9/6 560/9/6
f 552/9/6 556/9/6 560/9/6
f 560/9/6 557/9/6 561/9/6
f 558/9/6 559/9/6 563/9/6
f 559/9/6 555/9/6 564/9/6
f 563/9/6 559/9/6 564/9/6
f 562/9/6 563/9/6 565/9/6
f 565/9/6 563/9/6 566/9/6
f 551/9/6 552/9/6 567/9/6
f 552/9/6 560/9/6 567/9/6
f 567/9/6 560/9/6 568/9/6
f 548/9/6 549/9/6 569/9/6
f 569/9/6 549/9/6 570/9/6
f 571/9/6 572/9/6 575/9/6
f 573/9/6 574/9/6 576/9/6
f 576/9/6 574/9/6 577/9/6
f 575/9/6 572/9/6 578/9/6
f 578/9/6 572/9/6 579/9/6
f 582/9/6 583/9/6 586/9/6
f 586/9/6 583/9/6 587/9/6
f 584/9/6 585/9/6 588/9/6
f 580/9/6 581/9/6 589/9/6
f 589/9/6 581/9/6 590/9/6
f 588/9/6 585/9/6 591/9/6
f 591/9/6 585/9/6 592/9/6
f 593/4/6 594/4/6 595/4/6
f 595/4/6 594/4/6 596/4/6
f 597/9/6 598/9/6 599/9/6
f 599/9/6 600/9/6 601/9/6
f 597/9/6 599/9/6 603/9/6
f 601/9/6 602/9/6 603/9/6
f 599/9/6 601/9/6 603/9/6
f 603/9/6 602/9/6 604/9/6
