# MagicaVoxel @ Ephtracy

# material
mtllib palette.mtl
usemtl palette

# normals
vn -1 0 0
vn 1 0 0
vn 0 0 1
vn 0 0 -1
vn 0 -1 0
vn 0 1 0

# texcoords
vt 0.900391 0.5
vt 0.904297 0.5
vt 0.966797 0.5

# verts
v -10 0 8
v -10 0 -8
v -10 1 8
v -10 1 -8
v -10 2 8
v -10 2 -8
v -10 3 8
v -10 3 -8
v -10 4 8
v -10 4 -8
v -4 4 4
v -4 4 -4
v -4 5 4
v -4 5 -4
v 4 4 4
v 4 4 -4
v 4 5 4
v 4 5 -4
v 10 0 8
v 10 0 -8
v 10 1 8
v 10 1 -8
v 10 2 8
v 10 2 -8
v 10 3 8
v 10 3 -8
v 10 4 8
v 10 4 -8
v -10 0 8
v -10 1 8
v -10 2 8
v -10 3 8
v -10 4 8
v -9 0 8
v -9 1 8
v -9 3 8
v -9 4 8
v -7 2 8
v -7 3 8
v 7 2 8
v 7 3 8
v 9 1 8
v 9 2 8
v 9 3 8
v 9 4 8
v 10 0 8
v 10 1 8
v 10 2 8
v 10 3 8
v 10 4 8
v -4 4 4
v -4 5 4
v 4 4 4
v 4 5 4
v -4 4 -4
v -4 5 -4
v 4 4 -4
v 4 5 -4
v -10 0 -8
v -10 1 -8
v -10 2 -8
v -10 3 -8
v -10 4 -8
v -9 0 -8
v -9 1 -8
v -9 3 -8
v -9 4 -8
v -7 2 -8
v -7 3 -8
v 7 2 -8
v 7 3 -8
v 9 1 -8
v 9 2 -8
v 9 3 -8
v 9 4 -8
v 10 0 -8
v 10 1 -8
v 10 2 -8
v 10 3 -8
v 10 4 -8
v -10 0 8
v -9 0 8
v 10 0 8
v -10 0 -8
v -9 0 -8
v 10 0 -8
v -10 4 8
v -9 4 8
v 9 4 8
v 10 4 8
v -4 4 4
v 4 4 4
v -4 4 -4
v 4 4 -4
v -10 4 -8
v -9 4 -8
v 9 4 -8
v 10 4 -8
v -4 5 4
v 4 5 4
v -4 5 -4
v 4 5 -4

# faces
f 3/3/1 2/3/1 1/3/1
f 4/3/1 2/3/1 3/3/1
f 5/1/1 4/1/1 3/1/1
f 6/1/1 4/1/1 5/1/1
f 7/2/1 6/2/1 5/2/1
f 8/2/1 6/2/1 7/2/1
f 9/3/1 8/3/1 7/3/1
f 10/3/1 8/3/1 9/3/1
f 13/2/1 12/2/1 11/2/1
f 14/2/1 12/2/1 13/2/1
f 15/2/2 16/2/2 17/2/2
f 17/2/2 16/2/2 18/2/2
f 19/1/2 20/1/2 21/1/2
f 21/1/2 20/1/2 22/1/2
f 21/3/2 22/3/2 23/3/2
f 23/3/2 22/3/2 24/3/2
f 23/2/2 24/2/2 25/2/2
f 25/2/2 24/2/2 26/2/2
f 25/3/2 26/3/2 27/3/2
f 27/3/2 26/3/2 28/3/2
f 34/3/3 30/3/3 29/3/3
f 35/1/3 31/1/3 30/1/3
f 35/3/3 30/3/3 34/3/3
f 36/3/3 33/3/3 32/3/3
f 36/2/3 32/2/3 31/2/3
f 37/3/3 33/3/3 36/3/3
f 38/1/3 31/1/3 35/1/3
f 38/1/3 35/1/3 34/1/3
f 38/2/3 37/2/3 36/2/3
f 38/2/3 36/2/3 31/2/3
f 39/2/3 37/2/3 38/2/3
f 40/1/3 38/1/3 34/1/3
f 40/1/3 39/1/3 38/1/3
f 41/2/3 37/2/3 39/2/3
f 41/1/3 39/1/3 40/1/3
f 42/1/3 40/1/3 34/1/3
f 43/2/3 41/2/3 40/2/3
f 43/1/3 40/1/3 42/1/3
f 44/2/3 37/2/3 41/2/3
f 44/2/3 41/2/3 43/2/3
f 45/2/3 37/2/3 44/2/3
f 46/1/3 42/1/3 34/1/3
f 47/3/3 43/3/3 42/3/3
f 47/1/3 42/1/3 46/1/3
f 48/2/3 44/2/3 43/2/3
f 48/3/3 43/3/3 47/3/3
f 49/3/3 45/3/3 44/3/3
f 49/2/3 44/2/3 48/2/3
f 50/3/3 45/3/3 49/3/3
f 53/2/3 52/2/3 51/2/3
f 54/2/3 52/2/3 53/2/3
f 55/2/4 56/2/4 57/2/4
f 57/2/4 56/2/4 58/2/4
f 59/3/4 60/3/4 64/3/4
f 60/1/4 61/1/4 65/1/4
f 64/3/4 60/3/4 65/3/4
f 62/3/4 63/3/4 66/3/4
f 61/2/4 62/2/4 66/2/4
f 66/3/4 63/3/4 67/3/4
f 65/1/4 61/1/4 68/1/4
f 64/1/4 65/1/4 68/1/4
f 66/2/4 67/2/4 68/2/4
f 61/2/4 66/2/4 68/2/4
f 68/2/4 67/2/4 69/2/4
f 64/1/4 68/1/4 70/1/4
f 68/1/4 69/1/4 70/1/4
f 69/2/4 67/2/4 71/2/4
f 70/1/4 69/1/4 71/1/4
f 64/1/4 70/1/4 72/1/4
f 70/2/4 71/2/4 73/2/4
f 72/1/4 70/1/4 73/1/4
f 71/2/4 67/2/4 74/2/4
f 73/2/4 71/2/4 74/2/4
f 74/2/4 67/2/4 75/2/4
f 64/1/4 72/1/4 76/1/4
f 72/3/4 73/3/4 77/3/4
f 76/1/4 72/1/4 77/1/4
f 73/2/4 74/2/4 78/2/4
f 77/3/4 73/3/4 78/3/4
f 74/3/4 75/3/4 79/3/4
f 78/2/4 74/2/4 79/2/4
f 79/3/4 75/3/4 80/3/4
f 84/3/5 82/3/5 81/3/5
f 85/1/5 83/1/5 82/1/5
f 85/3/5 82/3/5 84/3/5
f 86/1/5 83/1/5 85/1/5
f 88/2/6 89/2/6 91/2/6
f 91/2/6 89/2/6 92/2/6
f 88/2/6 91/2/6 93/2/6
f 92/2/6 89/2/6 94/2/6
f 87/3/6 88/3/6 95/3/6
f 93/2/6 94/2/6 96/2/6
f 95/3/6 88/3/6 96/3/6
f 88/2/6 93/2/6 96/2/6
f 89/3/6 90/3/6 97/3/6
f 96/2/6 94/2/6 97/2/6
f 94/2/6 89/2/6 97/2/6
f 97/3/6 90/3/6 98/3/6
f 99/2/6 100/2/6 101/2/6
f 101/2/6 100/2/6 102/2/6
