# MagicaVoxel @ Ephtracy

# material
mtllib palette.mtl
usemtl palette

# normals
vn -1 0 0
vn 1 0 0
vn 0 0 1
vn 0 0 -1
vn 0 -1 0
vn 0 1 0

# texcoords
vt 0.166016 0.5
vt 0.470703 0.5
vt 0.642578 0.5

# verts
v -11 1 1
v -11 1 -1
v -11 2 1
v -11 2 -1
v -11 3 1
v -11 3 -1
v -11 4 1
v -11 4 -1
v -11 5 1
v -11 5 -1
v -10 0 1
v -10 0 -1
v -10 1 1
v -10 1 -1
v -10 5 1
v -10 5 -1
v -10 6 1
v -10 6 -1
v 10 1 1
v 10 1 -1
v 10 2 1
v 10 2 -1
v 10 3 1
v 10 3 -1
v 10 4 1
v 10 4 -1
v 10 5 1
v 10 5 -1
v -10 1 1
v -10 1 -1
v -10 2 1
v -10 2 -1
v -10 3 1
v -10 3 -1
v -10 4 1
v -10 4 -1
v -10 5 1
v -10 5 -1
v 10 0 1
v 10 0 -1
v 10 1 1
v 10 1 -1
v 10 5 1
v 10 5 -1
v 10 6 1
v 10 6 -1
v 11 1 1
v 11 1 -1
v 11 2 1
v 11 2 -1
v 11 3 1
v 11 3 -1
v 11 4 1
v 11 4 -1
v 11 5 1
v 11 5 -1
v -11 1 1
v -11 2 1
v -11 3 1
v -11 4 1
v -11 5 1
v -10 0 1
v -10 1 1
v -10 2 1
v -10 3 1
v -10 4 1
v -10 5 1
v -10 6 1
v -9 0 1
v -9 1 1
v -9 5 1
v -9 6 1
v -8 0 1
v -8 1 1
v -8 5 1
v -8 6 1
v -7 0 1
v -7 1 1
v -7 5 1
v -7 6 1
v -6 0 1
v -6 1 1
v -6 5 1
v -6 6 1
v -5 0 1
v -5 1 1
v -5 5 1
v -5 6 1
v -4 0 1
v -4 1 1
v -4 5 1
v -4 6 1
v -3 0 1
v -3 1 1
v -3 5 1
v -3 6 1
v -2 0 1
v -2 1 1
v -2 5 1
v -2 6 1
v -1 0 1
v -1 1 1
v -1 5 1
v -1 6 1
v 0 0 1
v 0 1 1
v 0 5 1
v 0 6 1
v 1 0 1
v 1 1 1
v 1 5 1
v 1 6 1
v 2 0 1
v 2 1 1
v 2 5 1
v 2 6 1
v 3 0 1
v 3 1 1
v 3 5 1
v 3 6 1
v 4 0 1
v 4 1 1
v 4 5 1
v 4 6 1
v 5 0 1
v 5 1 1
v 5 5 1
v 5 6 1
v 6 0 1
v 6 1 1
v 6 5 1
v 6 6 1
v 7 0 1
v 7 1 1
v 7 5 1
v 7 6 1
v 8 0 1
v 8 1 1
v 8 5 1
v 8 6 1
v 9 0 1
v 9 1 1
v 9 5 1
v 9 6 1
v 10 0 1
v 10 1 1
v 10 2 1
v 10 3 1
v 10 4 1
v 10 5 1
v 10 6 1
v 11 1 1
v 11 2 1
v 11 3 1
v 11 4 1
v 11 5 1
v -11 1 -1
v -11 2 -1
v -11 3 -1
v -11 4 -1
v -11 5 -1
v -10 0 -1
v -10 1 -1
v -10 2 -1
v -10 3 -1
v -10 4 -1
v -10 5 -1
v -10 6 -1
v -9 0 -1
v -9 1 -1
v -9 5 -1
v -9 6 -1
v -8 0 -1
v -8 1 -1
v -8 5 -1
v -8 6 -1
v -7 0 -1
v -7 1 -1
v -7 5 -1
v -7 6 -1
v -6 0 -1
v -6 1 -1
v -6 5 -1
v -6 6 -1
v -5 0 -1
v -5 1 -1
v -5 5 -1
v -5 6 -1
v -4 0 -1
v -4 1 -1
v -4 5 -1
v -4 6 -1
v -3 0 -1
v -3 1 -1
v -3 5 -1
v -3 6 -1
v -2 0 -1
v -2 1 -1
v -2 5 -1
v -2 6 -1
v -1 0 -1
v -1 1 -1
v -1 5 -1
v -1 6 -1
v 0 0 -1
v 0 1 -1
v 0 5 -1
v 0 6 -1
v 1 0 -1
v 1 1 -1
v 1 5 -1
v 1 6 -1
v 2 0 -1
v 2 1 -1
v 2 5 -1
v 2 6 -1
v 3 0 -1
v 3 1 -1
v 3 5 -1
v 3 6 -1
v 4 0 -1
v 4 1 -1
v 4 5 -1
v 4 6 -1
v 5 0 -1
v 5 1 -1
v 5 5 -1
v 5 6 -1
v 6 0 -1
v 6 1 -1
v 6 5 -1
v 6 6 -1
v 7 0 -1
v 7 1 -1
v 7 5 -1
v 7 6 -1
v 8 0 -1
v 8 1 -1
v 8 5 -1
v 8 6 -1
v 9 0 -1
v 9 1 -1
v 9 5 -1
v 9 6 -1
v 10 0 -1
v 10 1 -1
v 10 2 -1
v 10 3 -1
v 10 4 -1
v 10 5 -1
v 10 6 -1
v 11 1 -1
v 11 2 -1
v 11 3 -1
v 11 4 -1
v 11 5 -1
v -10 0 1
v -9 0 1
v -8 0 1
v -7 0 1
v -6 0 1
v -5 0 1
v -4 0 1
v -3 0 1
v -2 0 1
v -1 0 1
v 0 0 1
v 1 0 1
v 2 0 1
v 3 0 1
v 4 0 1
v 5 0 1
v 6 0 1
v 7 0 1
v 8 0 1
v 9 0 1
v 10 0 1
v -10 0 -1
v -9 0 -1
v -8 0 -1
v -7 0 -1
v -6 0 -1
v -5 0 -1
v -4 0 -1
v -3 0 -1
v -2 0 -1
v -1 0 -1
v 0 0 -1
v 1 0 -1
v 2 0 -1
v 3 0 -1
v 4 0 -1
v 5 0 -1
v 6 0 -1
v 7 0 -1
v 8 0 -1
v 9 0 -1
v 10 0 -1
v -11 1 1
v -10 1 1
v 10 1 1
v 11 1 1
v -11 1 -1
v -10 1 -1
v 10 1 -1
v 11 1 -1
v -10 5 1
v -9 5 1
v -8 5 1
v -7 5 1
v -6 5 1
v -5 5 1
v -4 5 1
v -3 5 1
v -2 5 1
v -1 5 1
v 0 5 1
v 1 5 1
v 2 5 1
v 3 5 1
v 4 5 1
v 5 5 1
v 6 5 1
v 7 5 1
v 8 5 1
v 9 5 1
v 10 5 1
v -10 5 -1
v -9 5 -1
v -8 5 -1
v -7 5 -1
v -6 5 -1
v -5 5 -1
v -4 5 -1
v -3 5 -1
v -2 5 -1
v -1 5 -1
v 0 5 -1
v 1 5 -1
v 2 5 -1
v 3 5 -1
v 4 5 -1
v 5 5 -1
v 6 5 -1
v 7 5 -1
v 8 5 -1
v 9 5 -1
v 10 5 -1
v -10 1 1
v -9 1 1
v -8 1 1
v -7 1 1
v -6 1 1
v -5 1 1
v -4 1 1
v -3 1 1
v -2 1 1
v -1 1 1
v 0 1 1
v 1 1 1
v 2 1 1
v 3 1 1
v 4 1 1
v 5 1 1
v 6 1 1
v 7 1 1
v 8 1 1
v 9 1 1
v 10 1 1
v -10 1 -1
v -9 1 -1
v -8 1 -1
v -7 1 -1
v -6 1 -1
v -5 1 -1
v -4 1 -1
v -3 1 -1
v -2 1 -1
v -1 1 -1
v 0 1 -1
v 1 1 -1
v 2 1 -1
v 3 1 -1
v 4 1 -1
v 5 1 -1
v 6 1 -1
v 7 1 -1
v 8 1 -1
v 9 1 -1
v 10 1 -1
v -11 5 1
v -10 5 1
v 10 5 1
v 11 5 1
v -11 5 -1
v -10 5 -1
v 10 5 -1
v 11 5 -1
v -10 6 1
v -9 6 1
v -8 6 1
v -7 6 1
v -6 6 1
v -5 6 1
v -4 6 1
v -3 6 1
v -2 6 1
v -1 6 1
v 0 6 1
v 1 6 1
v 2 6 1
v 3 6 1
v 4 6 1
v 5 6 1
v 6 6 1
v 7 6 1
v 8 6 1
v 9 6 1
v 10 6 1
v -10 6 -1
v -9 6 -1
v -8 6 -1
v -7 6 -1
v -6 6 -1
v -5 6 -1
v -4 6 -1
v -3 6 -1
v -2 6 -1
v -1 6 -1
v 0 6 -1
v 1 6 -1
v 2 6 -1
v 3 6 -1
v 4 6 -1
v 5 6 -1
v 6 6 -1
v 7 6 -1
v 8 6 -1
v 9 6 -1
v 10 6 -1

# faces
f 3/1/1 2/1/1 1/1/1
f 4/1/1 2/1/1 3/1/1
f 5/2/1 4/2/1 3/2/1
f 6/2/1 4/2/1 5/2/1
f 7/3/1 6/3/1 5/3/1
f 8/3/1 6/3/1 7/3/1
f 9/1/1 8/1/1 7/1/1
f 10/1/1 8/1/1 9/1/1
f 13/3/1 12/3/1 11/3/1
f 14/3/1 12/3/1 13/3/1
f 17/1/1 16/1/1 15/1/1
f 18/1/1 16/1/1 17/1/1
f 21/1/1 20/1/1 19/1/1
f 22/1/1 20/1/1 21/1/1
f 23/2/1 22/2/1 21/2/1
f 24/2/1 22/2/1 23/2/1
f 25/3/1 24/3/1 23/3/1
f 26/3/1 24/3/1 25/3/1
f 27/1/1 26/1/1 25/1/1
f 28/1/1 26/1/1 27/1/1
f 29/1/2 30/1/2 31/1/2
f 31/1/2 30/1/2 32/1/2
f 31/2/2 32/2/2 33/2/2
f 33/2/2 32/2/2 34/2/2
f 33/3/2 34/3/2 35/3/2
f 35/3/2 34/3/2 36/3/2
f 35/1/2 36/1/2 37/1/2
f 37/1/2 36/1/2 38/1/2
f 39/2/2 40/2/2 41/2/2
f 41/2/2 40/2/2 42/2/2
f 43/2/2 44/2/2 45/2/2
f 45/2/2 44/2/2 46/2/2
f 47/1/2 48/1/2 49/1/2
f 49/1/2 48/1/2 50/1/2
f 49/2/2 50/2/2 51/2/2
f 51/2/2 50/2/2 52/2/2
f 51/3/2 52/3/2 53/3/2
f 53/3/2 52/3/2 54/3/2
f 53/1/2 54/1/2 55/1/2
f 55/1/2 54/1/2 56/1/2
f 63/1/3 58/1/3 57/1/3
f 64/2/3 59/2/3 58/2/3
f 64/1/3 58/1/3 63/1/3
f 65/3/3 60/3/3 59/3/3
f 65/2/3 59/2/3 64/2/3
f 66/1/3 61/1/3 60/1/3
f 66/3/3 60/3/3 65/3/3
f 67/1/3 61/1/3 66/1/3
f 69/3/3 63/3/3 62/3/3
f 70/3/3 63/3/3 69/3/3
f 71/1/3 68/1/3 67/1/3
f 72/1/3 68/1/3 71/1/3
f 73/1/3 70/1/3 69/1/3
f 74/1/3 70/1/3 73/1/3
f 75/3/3 72/3/3 71/3/3
f 76/3/3 72/3/3 75/3/3
f 77/2/3 74/2/3 73/2/3
f 78/2/3 74/2/3 77/2/3
f 79/2/3 76/2/3 75/2/3
f 80/2/3 76/2/3 79/2/3
f 81/1/3 78/1/3 77/1/3
f 82/1/3 78/1/3 81/1/3
f 83/1/3 80/1/3 79/1/3
f 84/1/3 80/1/3 83/1/3
f 85/2/3 82/2/3 81/2/3
f 86/2/3 82/2/3 85/2/3
f 87/2/3 84/2/3 83/2/3
f 88/2/3 84/2/3 87/2/3
f 89/3/3 86/3/3 85/3/3
f 90/3/3 86/3/3 89/3/3
f 91/1/3 88/1/3 87/1/3
f 92/1/3 88/1/3 91/1/3
f 93/1/3 90/1/3 89/1/3
f 94/1/3 90/1/3 93/1/3
f 95/3/3 92/3/3 91/3/3
f 96/3/3 92/3/3 95/3/3
f 97/2/3 94/2/3 93/2/3
f 98/2/3 94/2/3 97/2/3
f 99/2/3 96/2/3 95/2/3
f 100/2/3 96/2/3 99/2/3
f 101/3/3 98/3/3 97/3/3
f 102/3/3 98/3/3 101/3/3
f 103/1/3 100/1/3 99/1/3
f 104/1/3 100/1/3 103/1/3
f 105/1/3 102/1/3 101/1/3
f 106/1/3 102/1/3 105/1/3
f 107/3/3 104/3/3 103/3/3
f 108/3/3 104/3/3 107/3/3
f 109/2/3 106/2/3 105/2/3
f 110/2/3 106/2/3 109/2/3
f 111/2/3 108/2/3 107/2/3
f 112/2/3 108/2/3 111/2/3
f 113/3/3 110/3/3 109/3/3
f 114/3/3 110/3/3 113/3/3
f 115/1/3 112/1/3 111/1/3
f 116/1/3 112/1/3 115/1/3
f 117/1/3 114/1/3 113/1/3
f 118/1/3 114/1/3 117/1/3
f 119/3/3 116/3/3 115/3/3
f 120/3/3 116/3/3 119/3/3
f 121/2/3 118/2/3 117/2/3
f 122/2/3 118/2/3 121/2/3
f 123/2/3 120/2/3 119/2/3
f 124/2/3 120/2/3 123/2/3
f 125/3/3 122/3/3 121/3/3
f 126/3/3 122/3/3 125/3/3
f 127/1/3 124/1/3 123/1/3
f 128/1/3 124/1/3 127/1/3
f 129/1/3 126/1/3 125/1/3
f 130/1/3 126/1/3 129/1/3
f 131/3/3 128/3/3 127/3/3
f 132/3/3 128/3/3 131/3/3
f 133/2/3 130/2/3 129/2/3
f 134/2/3 130/2/3 133/2/3
f 135/2/3 132/2/3 131/2/3
f 136/2/3 132/2/3 135/2/3
f 137/3/3 134/3/3 133/3/3
f 138/3/3 134/3/3 137/3/3
f 139/1/3 136/1/3 135/1/3
f 140/1/3 136/1/3 139/1/3
f 141/1/3 138/1/3 137/1/3
f 142/1/3 138/1/3 141/1/3
f 143/3/3 140/3/3 139/3/3
f 144/3/3 140/3/3 143/3/3
f 145/2/3 142/2/3 141/2/3
f 146/2/3 142/2/3 145/2/3
f 150/2/3 144/2/3 143/2/3
f 151/2/3 144/2/3 150/2/3
f 152/1/3 147/1/3 146/1/3
f 153/2/3 148/2/3 147/2/3
f 153/1/3 147/1/3 152/1/3
f 154/3/3 149/3/3 148/3/3
f 154/2/3 148/2/3 153/2/3
f 155/1/3 150/1/3 149/1/3
f 155/3/3 149/3/3 154/3/3
f 156/1/3 150/1/3 155/1/3
f 157/1/4 158/1/4 163/1/4
f 158/2/4 159/2/4 164/2/4
f 163/1/4 158/1/4 164/1/4
f 159/3/4 160/3/4 165/3/4
f 164/2/4 159/2/4 165/2/4
f 160/1/4 161/1/4 166/1/4
f 165/3/4 160/3/4 166/3/4
f 166/1/4 161/1/4 167/1/4
f 162/3/4 163/3/4 169/3/4
f 169/3/4 163/3/4 170/3/4
f 167/1/4 168/1/4 171/1/4
f 171/1/4 168/1/4 172/1/4
f 169/1/4 170/1/4 173/1/4
f 173/1/4 170/1/4 174/1/4
f 171/3/4 172/3/4 175/3/4
f 175/3/4 172/3/4 176/3/4
f 173/2/4 174/2/4 177/2/4
f 177/2/4 174/2/4 178/2/4
f 175/2/4 176/2/4 179/2/4
f 179/2/4 176/2/4 180/2/4
f 177/1/4 178/1/4 181/1/4
f 181/1/4 178/1/4 182/1/4
f 179/1/4 180/1/4 183/1/4
f 183/1/4 180/1/4 184/1/4
f 181/2/4 182/2/4 185/2/4
f 185/2/4 182/2/4 186/2/4
f 183/2/4 184/2/4 187/2/4
f 187/2/4 184/2/4 188/2/4
f 185/3/4 186/3/4 189/3/4
f 189/3/4 186/3/4 190/3/4
f 187/1/4 188/1/4 191/1/4
f 191/1/4 188/1/4 192/1/4
f 189/1/4 190/1/4 193/1/4
f 193/1/4 190/1/4 194/1/4
f 191/3/4 192/3/4 195/3/4
f 195/3/4 192/3/4 196/3/4
f 193/2/4 194/2/4 197/2/4
f 197/2/4 194/2/4 198/2/4
f 195/2/4 196/2/4 199/2/4
f 199/2/4 196/2/4 200/2/4
f 197/3/4 198/3/4 201/3/4
f 201/3/4 198/3/4 202/3/4
f 199/1/4 200/1/4 203/1/4
f 203/1/4 200/1/4 204/1/4
f 201/1/4 202/1/4 205/1/4
f 205/1/4 202/1/4 206/1/4
f 203/3/4 204/3/4 207/3/4
f 207/3/4 204/3/4 208/3/4
f 205/2/4 206/2/4 209/2/4
f 209/2/4 206/2/4 210/2/4
f 207/2/4 208/2/4 211/2/4
f 211/2/4 208/2/4 212/2/4
f 209/3/4 210/3/4 213/3/4
f 213/3/4 210/3/4 214/3/4
f 211/1/4 212/1/4 215/1/4
f 215/1/4 212/1/4 216/1/4
f 213/1/4 214/1/4 217/1/4
f 217/1/4 214/1/4 218/1/4
f 215/3/4 216/3/4 219/3/4
f 219/3/4 216/3/4 220/3/4
f 217/2/4 218/2/4 221/2/4
f 221/2/4 218/2/4 222/2/4
f 219/2/4 220/2/4 223/2/4
f 223/2/4 220/2/4 224/2/4
f 221/3/4 222/3/4 225/3/4
f 225/3/4 222/3/4 226/3/4
f 223/1/4 224/1/4 227/1/4
f 227/1/4 224/1/4 228/1/4
f 225/1/4 226/1/4 229/1/4
f 229/1/4 226/1/4 230/1/4
f 227/3/4 228/3/4 231/3/4
f 231/3/4 228/3/4 232/3/4
f 229/2/4 230/2/4 233/2/4
f 233/2/4 230/2/4 234/2/4
f 231/2/4 232/2/4 235/2/4
f 235/2/4 232/2/4 236/2/4
f 233/3/4 234/3/4 237/3/4
f 237/3/4 234/3/4 238/3/4
f 235/1/4 236/1/4 239/1/4
f 239/1/4 236/1/4 240/1/4
f 237/1/4 238/1/4 241/1/4
f 241/1/4 238/1/4 242/1/4
f 239/3/4 240/3/4 243/3/4
f 243/3/4 240/3/4 244/3/4
f 241/2/4 242/2/4 245/2/4
f 245/2/4 242/2/4 246/2/4
f 243/2/4 244/2/4 250/2/4
f 250/2/4 244/2/4 251/2/4
f 246/1/4 247/1/4 252/1/4
f 247/2/4 248/2/4 253/2/4
f 252/1/4 247/1/4 253/1/4
f 248/3/4 249/3/4 254/3/4
f 253/2/4 248/2/4 254/2/4
f 249/1/4 250/1/4 255/1/4
f 254/3/4 249/3/4 255/3/4
f 255/1/4 250/1/4 256/1/4
f 278/3/5 258/3/5 257/3/5
f 279/1/5 259/1/5 258/1/5
f 279/3/5 258/3/5 278/3/5
f 280/2/5 260/2/5 259/2/5
f 280/1/5 259/1/5 279/1/5
f 281/1/5 261/1/5 260/1/5
f 281/2/5 260/2/5 280/2/5
f 282/2/5 262/2/5 261/2/5
f 282/1/5 261/1/5 281/1/5
f 283/3/5 263/3/5 262/3/5
f 283/2/5 262/2/5 282/2/5
f 284/1/5 264/1/5 263/1/5
f 284/3/5 263/3/5 283/3/5
f 285/2/5 265/2/5 264/2/5
f 285/1/5 264/1/5 284/1/5
f 286/3/5 266/3/5 265/3/5
f 286/2/5 265/2/5 285/2/5
f 287/1/5 267/1/5 266/1/5
f 287/3/5 266/3/5 286/3/5
f 288/2/5 268/2/5 267/2/5
f 288/1/5 267/1/5 287/1/5
f 289/3/5 269/3/5 268/3/5
f 289/2/5 268/2/5 288/2/5
f 290/1/5 270/1/5 269/1/5
f 290/3/5 269/3/5 289/3/5
f 291/2/5 271/2/5 270/2/5
f 291/1/5 270/1/5 290/1/5
f 292/3/5 272/3/5 271/3/5
f 292/2/5 271/2/5 291/2/5
f 293/1/5 273/1/5 272/1/5
f 293/3/5 272/3/5 292/3/5
f 294/2/5 274/2/5 273/2/5
f 294/1/5 273/1/5 293/1/5
f 295/3/5 275/3/5 274/3/5
f 295/2/5 274/2/5 294/2/5
f 296/1/5 276/1/5 275/1/5
f 296/3/5 275/3/5 295/3/5
f 297/2/5 277/2/5 276/2/5
f 297/1/5 276/1/5 296/1/5
f 298/2/5 277/2/5 297/2/5
f 303/1/5 300/1/5 299/1/5
f 304/1/5 300/1/5 303/1/5
f 305/1/5 302/1/5 301/1/5
f 306/1/5 302/1/5 305/1/5
f 328/1/5 308/1/5 307/1/5
f 329/3/5 309/3/5 308/3/5
f 329/1/5 308/1/5 328/1/5
f 330/2/5 310/2/5 309/2/5
f 330/3/5 309/3/5 329/3/5
f 331/1/5 311/1/5 310/1/5
f 331/2/5 310/2/5 330/2/5
f 332/2/5 312/2/5 311/2/5
f 332/1/5 311/1/5 331/1/5
f 333/1/5 313/1/5 312/1/5
f 333/2/5 312/2/5 332/2/5
f 334/3/5 314/3/5 313/3/5
f 334/1/5 313/1/5 333/1/5
f 335/2/5 315/2/5 314/2/5
f 335/3/5 314/3/5 334/3/5
f 336/1/5 316/1/5 315/1/5
f 336/2/5 315/2/5 335/2/5
f 337/3/5 317/3/5 316/3/5
f 337/1/5 316/1/5 336/1/5
f 338/2/5 318/2/5 317/2/5
f 338/3/5 317/3/5 337/3/5
f 339/1/5 319/1/5 318/1/5
f 339/2/5 318/2/5 338/2/5
f 340/3/5 320/3/5 319/3/5
f 340/1/5 319/1/5 339/1/5
f 341/2/5 321/2/5 320/2/5
f 341/3/5 320/3/5 340/3/5
f 342/1/5 322/1/5 321/1/5
f 342/2/5 321/2/5 341/2/5
f 343/3/5 323/3/5 322/3/5
f 343/1/5 322/1/5 342/1/5
f 344/2/5 324/2/5 323/2/5
f 344/3/5 323/3/5 343/3/5
f 345/1/5 325/1/5 324/1/5
f 345/2/5 324/2/5 344/2/5
f 346/3/5 326/3/5 325/3/5
f 346/1/5 325/1/5 345/1/5
f 347/2/5 327/2/5 326/2/5
f 347/3/5 326/3/5 346/3/5
f 348/2/5 327/2/5 347/2/5
f 349/3/6 350/3/6 370/3/6
f 350/1/6 351/1/6 371/1/6
f 370/3/6 350/3/6 371/3/6
f 351/2/6 352/2/6 372/2/6
f 371/1/6 351/1/6 372/1/6
f 352/1/6 353/1/6 373/1/6
f 372/2/6 352/2/6 373/2/6
f 353/2/6 354/2/6 374/2/6
f 373/1/6 353/1/6 374/1/6
f 354/3/6 355/3/6 375/3/6
f 374/2/6 354/2/6 375/2/6
f 355/1/6 356/1/6 376/1/6
f 375/3/6 355/3/6 376/3/6
f 356/2/6 357/2/6 377/2/6
f 376/1/6 356/1/6 377/1/6
f 357/3/6 358/3/6 378/3/6
f 377/2/6 357/2/6 378/2/6
f 358/1/6 359/1/6 379/1/6
f 378/3/6 358/3/6 379/3/6
f 359/2/6 360/2/6 380/2/6
f 379/1/6 359/1/6 380/1/6
f 360/3/6 361/3/6 381/3/6
f 380/2/6 360/2/6 381/2/6
f 361/1/6 362/1/6 382/1/6
f 381/3/6 361/3/6 382/3/6
f 362/2/6 363/2/6 383/2/6
f 382/1/6 362/1/6 383/1/6
f 363/3/6 364/3/6 384/3/6
f 383/2/6 363/2/6 384/2/6
f 364/1/6 365/1/6 385/1/6
f 384/3/6 364/3/6 385/3/6
f 365/2/6 366/2/6 386/2/6
f 385/1/6 365/1/6 386/1/6
f 366/3/6 367/3/6 387/3/6
f 386/2/6 366/2/6 387/2/6
f 367/1/6 368/1/6 388/1/6
f 387/3/6 367/3/6 388/3/6
f 368/2/6 369/2/6 389/2/6
f 388/1/6 368/1/6 389/1/6
f 389/2/6 369/2/6 390/2/6
f 391/1/6 392/1/6 395/1/6
f 395/1/6 392/1/6 396/1/6
f 393/1/6 394/1/6 397/1/6
f 397/1/6 394/1/6 398/1/6
f 399/1/6 400/1/6 420/1/6
f 400/3/6 401/3/6 421/3/6
f 420/1/6 400/1/6 421/1/6
f 401/2/6 402/2/6 422/2/6
f 421/3/6 401/3/6 422/3/6
f 402/1/6 403/1/6 423/1/6
f 422/2/6 402/2/6 423/2/6
f 403/2/6 404/2/6 424/2/6
f 423/1/6 403/1/6 424/1/6
f 404/1/6 405/1/6 425/1/6
f 424/2/6 404/2/6 425/2/6
f 405/3/6 406/3/6 426/3/6
f 425/1/6 405/1/6 426/1/6
f 406/2/6 407/2/6 427/2/6
f 426/3/6 406/3/6 427/3/6
f 407/1/6 408/1/6 428/1/6
f 427/2/6 407/2/6 428/2/6
f 408/3/6 409/3/6 429/3/6
f 428/1/6 408/1/6 429/1/6
f 409/2/6 410/2/6 430/2/6
f 429/3/6 409/3/6 430/3/6
f 410/1/6 411/1/6 431/1/6
f 430/2/6 410/2/6 431/2/6
f 411/3/6 412/3/6 432/3/6
f 431/1/6 411/1/6 432/1/6
f 412/2/6 413/2/6 433/2/6
f 432/3/6 412/3/6 433/3/6
f 413/1/6 414/1/6 434/1/6
f 433/2/6 413/2/6 434/2/6
f 414/3/6 415/3/6 435/3/6
f 434/1/6 414/1/6 435/1/6
f 415/2/6 416/2/6 436/2/6
f 435/3/6 415/3/6 436/3/6
f 416/1/6 417/1/6 437/1/6
f 436/2/6 416/2/6 437/2/6
f 417/3/6 418/3/6 438/3/6
f 437/1/6 417/1/6 438/1/6
f 418/2/6 419/2/6 439/2/6
f 438/3/6 418/3/6 439/3/6
f 439/2/6 419/2/6 440/2/6
